<?xml version="1.0" encoding="utf-8"?>
<!-- Generator: Adobe Illustrator 17.0.0, SVG Export Plug-In . SVG Version: 6.00 Build 0)  -->
<!DOCTYPE svg PUBLIC "-//W3C//DTD SVG 1.1//EN" "http://www.w3.org/Graphics/SVG/1.1/DTD/svg11.dtd">
<svg version="1.1"
	 id="图层_1" xmlns:dc="http://purl.org/dc/elements/1.1/" xmlns:cc="http://creativecommons.org/ns#" xmlns:rdf="http://www.w3.org/1999/02/22-rdf-syntax-ns#" xmlns:svg="http://www.w3.org/2000/svg"
	 xmlns="http://www.w3.org/2000/svg" xmlns:xlink="http://www.w3.org/1999/xlink" x="0px" y="0px" width="200px" height="200px"
	 viewBox="0 0 200 200" enable-background="new 0 0 200 200" xml:space="preserve">
<path fill="none" d="M119.551,89.656c5.506,0,9.833-4.326,9.833-9.833c0-5.506-4.326-9.833-9.833-9.833
	c-5.507,0-9.833,4.327-9.833,9.833S114.044,89.656,119.551,89.656z"/>
<rect x="72.174" y="102.245" transform="matrix(0.7071 0.7071 -0.7071 0.7071 107.7745 -16.7618)" fill="none" width="3.893" height="38.939"/>
<rect x="72.174" y="102.245" transform="matrix(0.7071 0.7071 -0.7071 0.7071 107.7745 -16.7618)" fill="none" width="3.893" height="38.939"/>
<path fill="none" d="M119.551,89.656c5.506,0,9.833-4.326,9.833-9.833c0-5.506-4.326-9.833-9.833-9.833
	c-5.507,0-9.833,4.327-9.833,9.833S114.044,89.656,119.551,89.656z"/>
<path fill="#8A8A8A" d="M100.5,3.5c-50.665,0-92.159,39.249-95.745,89h20.304C28.827,54.048,61.245,24,100.688,24
	c41.974,0,76,34.026,76,76s-34.026,76-76,76c-16.36,0-31.498-5.186-43.894-13.982c2.125-3.098,6.972-11.393,7.296-11.393
	c0.786,0,1.967-0.393,2.753-1.18l5.113-5.113l13.374-1.967c1.573-0.393,3.147-1.573,3.147-3.147l2.36-13.767l14.947-14.947
	c11.8,5.113,25.96,2.36,35.401-6.687c12.587-12.587,12.587-33.041,0-45.627c-12.587-12.587-33.041-12.587-45.627,0
	c-9.44,9.44-11.8,23.207-6.687,35.401l-38.941,38.94c-0.787,0.787-1.18,1.574-1.18,2.754s0.393,1.967,1.18,2.753L63.719,150.5
	c0.308,0.308-5.236,8.111-7.214,11.314C39.692,149.765,27.988,131.038,25.3,109.5H5.017c5.001,48.32,45.841,86,95.483,86
	c53.019,0,96-42.981,96-96S153.519,3.5,100.5,3.5z M119.551,69.99c5.507,0,9.833,4.327,9.833,9.833c0,5.507-4.327,9.833-9.833,9.833
	c-5.507,0-9.833-4.327-9.833-9.833S114.044,69.99,119.551,69.99z M61.73,136.858l-2.753-2.753l27.534-27.534l2.753,2.753
	L61.73,136.858z"/>
</svg>
