<svg xmlns="http://www.w3.org/2000/svg" viewBox="0 0 15 15"><defs><style>.cls-1{fill:#4d4d4d;}</style></defs><title>资源 1</title><g id="图层_2" data-name="图层 2"><g id="图层_1-2" data-name="图层 1"><path class="cls-1" d="M5,1a.68.68,0,0,1,.67.67V5A.67.67,0,0,1,5,5.67H1.67A.68.68,0,0,1,1,5V1.67A.68.68,0,0,1,1.67,1H5M5,0H1.67A1.67,1.67,0,0,0,0,1.67V5A1.67,1.67,0,0,0,1.67,6.67H5A1.67,1.67,0,0,0,6.67,5V1.67A1.67,1.67,0,0,0,5,0Z"/><path class="cls-1" d="M13.33,1a.68.68,0,0,1,.67.67V5a.68.68,0,0,1-.67.67H10A.67.67,0,0,1,9.33,5V1.67A.68.68,0,0,1,10,1h3.33m0-1H10A1.67,1.67,0,0,0,8.33,1.67V5A1.67,1.67,0,0,0,10,6.67h3.33A1.67,1.67,0,0,0,15,5V1.67A1.67,1.67,0,0,0,13.33,0Z"/><path class="cls-1" d="M5,9.33a.67.67,0,0,1,.67.67v3.33A.68.68,0,0,1,5,14H1.67A.68.68,0,0,1,1,13.33V10a.68.68,0,0,1,.67-.67H5m0-1H1.67A1.67,1.67,0,0,0,0,10v3.33A1.67,1.67,0,0,0,1.67,15H5a1.67,1.67,0,0,0,1.67-1.67V10A1.67,1.67,0,0,0,5,8.33Z"/><path class="cls-1" d="M13.33,9.33A.68.68,0,0,1,14,10v3.33a.68.68,0,0,1-.67.67H10a.68.68,0,0,1-.67-.67V10A.67.67,0,0,1,10,9.33h3.33m0-1H10A1.67,1.67,0,0,0,8.33,10v3.33A1.67,1.67,0,0,0,10,15h3.33A1.67,1.67,0,0,0,15,13.33V10a1.67,1.67,0,0,0-1.67-1.67Z"/></g></g></svg>