<?xml version="1.0" encoding="UTF-8" standalone="no"?>
<svg
   xmlns:dc="http://purl.org/dc/elements/1.1/"
   xmlns:cc="http://creativecommons.org/ns#"
   xmlns:rdf="http://www.w3.org/1999/02/22-rdf-syntax-ns#"
   xmlns:svg="http://www.w3.org/2000/svg"
   xmlns="http://www.w3.org/2000/svg"
   id="svg8"
   height="200"
   width="200"
   p-id="51548"
   version="1.1"
   viewBox="0 0 1024 1024"
   style=""
   class="icon"
   t="1503366047038">
  <metadata
     id="metadata12">
    <rdf:RDF>
      <cc:Work
         rdf:about="">
        <dc:format>image/svg+xml</dc:format>
        <dc:type
           rdf:resource="http://purl.org/dc/dcmitype/StillImage" />
      </cc:Work>
    </rdf:RDF>
  </metadata>
  <defs
     id="defs4">
    <style
       id="style2"
       type="text/css" />
  </defs>
  <path
     id="path6"
     fill="#8a8a8a"
     p-id="51549"
     d="M864 256 160 256C142.32 256 128 241.68 128 224 128 206.32 142.32 192 160 192L864 192C881.68 192 896 206.32 896 224 896 241.68 881.68 256 864 256ZM608 128 416 128C398.32 128 384 113.68 384 96 384 78.32 398.32 64 416 64L608 64C625.68 64 640 78.32 640 96 640 113.68 625.68 128 608 128ZM224 320C241.68 320 256 334.32 256 352L256 832C256 867.344 284.656 896 320 896L384 896 384 352C384 334.32 398.32 320 416 320 433.68 320 448 334.32 448 352L448 896 576 896 576 352C576 334.32 590.32 320 608 320 625.68 320 640 334.32 640 352L640 896 704 896C739.344 896 768 867.344 768 832L768 352C768 334.32 782.32 320 800 320 817.68 320 832 334.32 832 352L832 832C832 902.688 774.688 960 704 960L320 960C249.312 960 192 902.688 192 832L192 352C192 334.32 206.32 320 224 320Z" />
</svg>
