<?xml version="1.0" encoding="utf-8"?>
<!-- Generator: Adobe Illustrator 17.0.0, SVG Export Plug-In . SVG Version: 6.00 Build 0)  -->
<!DOCTYPE svg PUBLIC "-//W3C//DTD SVG 1.1//EN" "http://www.w3.org/Graphics/SVG/1.1/DTD/svg11.dtd">
<svg version="1.1" id="图层_1" xmlns="http://www.w3.org/2000/svg" xmlns:xlink="http://www.w3.org/1999/xlink" x="0px" y="0px"
	 width="595.28px" height="841.89px" viewBox="0 0 595.28 841.89" style="enable-background:new 0 0 595.28 841.89;"
	 xml:space="preserve">
<path style="fill:#8A8A8A;" d="M39.103,70.692c0,13.308,0,243.807,0,261.808s12.27,28.093,28.583,28.093s239.314,0,261.564,0
	c27.75,0,29.337-29.01,29.337-29.01s0-234.982,0-262.032s-28.489-28.442-28.489-28.442s-246.099,0-261.848,0
	S39.103,57.383,39.103,70.692z M93.667,66.108c16.333,0,42.833,0,42.833,0s0,22.165,0,46.779s-28.391,28.216-28.391,28.216H64.601
	c0,0,0-27.268,0-45.436S77.334,66.108,93.667,66.108z M304.353,336.369c-28.853,0-124.257,0-124.257,0s0-97.869,0-124.119
	s28.654-28.648,28.654-28.648h124.113v123.741C332.863,307.343,333.205,336.369,304.353,336.369z M332.863,161.103H209.5
	c-38.715,0-53,30.897-53,51.397c0,11,0,123.869,0,123.869s-34.666,0-62.833,0S64.601,308,64.601,308V163.602H105
	c45.5,0,55.096-33.602,55.096-49.102s0-48.392,0-48.392h144.127c0,0,28.64-0.506,28.64,28.693S332.863,161.103,332.863,161.103z"/>
</svg>
