<?xml version="1.0" encoding="utf-8"?>
<!-- Generator: Adobe Illustrator 17.0.0, SVG Export Plug-In . SVG Version: 6.00 Build 0)  -->
<!DOCTYPE svg PUBLIC "-//W3C//DTD SVG 1.1//EN" "http://www.w3.org/Graphics/SVG/1.1/DTD/svg11.dtd">
<svg version="1.1" id="图层_1" xmlns="http://www.w3.org/2000/svg" xmlns:xlink="http://www.w3.org/1999/xlink" x="0px" y="0px"
	 width="200px" height="200px" viewBox="0 0 200 200" enable-background="new 0 0 200 200" xml:space="preserve">
<path fill="#FF5C68" d="M99.78,171.65c-39.805,0-71.732-32.341-71.732-71.732S60.39,28.187,99.78,28.187
	c14.927,0,28.61,4.561,40.22,12.439c14.512,0,17.415,0.415,35.244,0.415C157.829,18.65,130.463,4.553,99.78,4.553
	C46.707,4.553,4,47.26,4,100.333s42.707,95.78,95.78,95.78c30.683,0,57.634-14.098,75.463-36.488h-34.829
	C128.805,167.089,114.707,171.65,99.78,171.65z M137.463,131.431l14.512,14.512L198,99.919l-46.024-46.024l-14.512,14.512
	l19.902,19.902H73.195v23.22h84.171L137.463,131.431L137.463,131.431z"/>
</svg>
