<?xml version="1.0" standalone="no"?>
<!DOCTYPE svg PUBLIC "-//W3C//DTD SVG 1.1//EN" "http://www.w3.org/Graphics/SVG/1.1/DTD/svg11.dtd" >
<svg xmlns="http://www.w3.org/2000/svg">
<metadata>Generated by IcoMoon</metadata>
<defs>
<font id="starriver" horiz-adv-x="1024">
<font-face units-per-em="1024" ascent="960" descent="-64" />
<missing-glyph horiz-adv-x="1024" />
<glyph unicode="&#x20;" horiz-adv-x="512" d="" />
<glyph unicode="&#xe900;" glyph-name="add_c" d="M850.089 786.089c-186.721 186.721-489.457 186.721-676.178 0s-186.721-489.457 0-676.178 489.457-186.721 676.178 0 186.721 489.457 0 676.178zM726.579 400.189h-166.866v-167.823c0.154-26.404-21.13-47.939-47.534-48.092-12.846-0.077-25.18 5.023-34.227 14.141-8.95 9.021-13.942 21.238-13.865 33.946v167.823h-167.823c-12.544 0.051-24.566 5.033-33.469 13.865-18.749 18.596-18.872 48.87-0.276 67.615 8.929 9.001 21.069 14.090 33.746 14.141h167.823v166.876c0 26.404 21.407 47.811 47.811 47.811s47.811-21.407 47.811-47.811v-166.866h166.866c26.404 0 47.811-21.407 47.811-47.811 0.005-26.409-21.402-47.816-47.805-47.816z" />
<glyph unicode="&#xe901;" glyph-name="alarm" d="M639.659 432.299c0.001-0.203 0.002-0.443 0.002-0.683 0-70.504-57.155-127.659-127.659-127.659s-127.659 57.155-127.659 127.659c0 70.503 57.154 127.658 127.657 127.659v0c0.001 0 0.001 0 0.002 0 70.264 0 127.269-56.766 127.657-126.939v-0.037zM944.811 159.232c11.139 17.366 22.299 37.739 32.098 58.871l1.353 3.252c8.746 18.624 17.337 41.272 24.32 64.614l0.938 3.653c5.055 16.769 9.809 37.737 13.257 59.141l0.396 2.982v12.971c2.978 20.458 4.713 44.129 4.779 68.193v0.074c-0.066 24.137-1.801 47.809-5.095 70.978l0.316-2.711v15.019c-4.095 24.992-9.080 46.402-15.306 67.276l0.97-3.788c-14.953 47.852-34.668 89.476-59.262 127.659l1.235-2.048c-6.273 8.633-16.336 14.182-27.695 14.182-18.851 0-34.133-15.282-34.133-34.133 0-6.221 1.664-12.054 4.572-17.077l-0.088 0.164c9.756-15.085 19.544-32.765 28.161-51.105l1.193-2.826c15.314-32.851 26.998-70.981 33.148-110.936l0.302-2.386v-10.923c2.507-17.35 3.993-37.466 4.096-57.91v-0.117c-0.103-20.56-1.589-40.677-4.368-60.377l0.272 2.351v-12.971c-3.527-21.529-7.8-39.947-13.127-57.912l0.839 3.299c-6.907-22.98-14.329-42.219-22.993-60.761l1.147 2.734c-9.556-20.898-19.122-38.361-29.758-55.074l1.086 1.826c-4.024-5.531-6.438-12.459-6.438-19.951 0-18.851 15.282-34.133 34.133-34.133 12.63 0 23.658 6.86 29.561 17.056l0.088 0.164zM125.611 148.992c9.571 6.154 15.82 16.75 15.82 28.805 0 6.508-1.822 12.591-4.983 17.767l0.085-0.15c-9.756 15.085-19.544 32.765-28.161 51.105l-1.193 2.826c-7.533 17.039-14.765 37.711-20.456 59.013l-0.707 3.11c-4.313 14.564-8.358 32.779-11.274 51.368l-0.331 2.563v10.923c-2.984 16.144-5.18 35.396-6.106 54.98l-0.038 0.999c0.103 20.56 1.589 40.677 4.368 60.377l-0.272-2.351v12.971c3.511 21.504 7.786 39.923 13.122 57.884l-0.834-3.271c6.907 22.98 14.329 42.219 22.993 60.761l-1.147-2.734c10.018 20.521 20.012 37.736 31.060 54.182l-1.023-1.617c2.82 4.859 4.485 10.691 4.485 16.913 0 18.851-15.282 34.133-34.133 34.133-11.359 0-21.423-5.549-27.627-14.084l-0.068-0.098c-11.139-17.366-22.299-37.739-32.098-58.871l-1.353-3.252c-17.783-37.989-31.371-82.084-38.557-128.296l-0.355-2.776v-12.971c-2.978-20.458-4.713-44.129-4.779-68.193v-0.074c0.066-24.137 1.801-47.809 5.095-70.978l-0.316 2.711v-15.019c4.105-25.009 9.091-46.418 15.31-67.296l-0.974 3.808c14.765-48.604 34.505-90.935 59.273-129.747l-1.246 2.089c6.172-9.466 16.709-15.635 28.686-15.635 6.84 0 13.21 2.012 18.551 5.476l-0.133-0.081zM720.896 148.992c87.092 64.47 142.935 166.855 142.935 282.283s-55.843 217.813-141.987 281.612l-0.948 0.671c-5.634 4.262-12.757 6.827-20.48 6.827-18.851 0-34.133-15.282-34.133-34.133 0-11.129 5.326-21.013 13.567-27.244l0.086-0.062c70.171-51.899 115.169-134.358 115.169-227.328s-44.999-175.429-114.404-226.787l-0.765-0.541c-8.328-6.293-13.653-16.178-13.653-27.307 0-18.851 15.282-34.133 34.133-34.133 7.723 0 14.846 2.565 20.566 6.889l-0.086-0.062zM348.843 155.819c4.262 5.634 6.827 12.757 6.827 20.48 0 11.129-5.326 21.013-13.567 27.244l-0.086 0.062c-70.908 51.845-116.446 134.734-116.446 228.259 0 93.228 45.249 175.888 114.984 227.215l0.779 0.547c8.328 6.293 13.653 16.178 13.653 27.307 0 18.851-15.282 34.133-34.133 34.133-7.723 0-14.846-2.565-20.566-6.889l0.086 0.062c-87.092-64.47-142.935-166.855-142.935-282.283s55.843-217.813 141.987-281.612l0.948-0.671c5.634-4.262 12.757-6.827 20.48-6.827 11.129 0 21.013 5.326 27.244 13.567l0.062 0.086z" />
<glyph unicode="&#xe902;" glyph-name="arrow-down" d="M804.571 448l-585.143 512v-1024l585.143 512z" />
<glyph unicode="&#xe903;" glyph-name="arrow-right" d="M804.571 448l-585.143 512v-1024l585.143 512z" />
<glyph unicode="&#xe904;" glyph-name="bottom" d="M901.453 19.917v642.514c0 20.173 15.852 36.531 35.405 36.531s35.405-16.353 35.405-36.531v-642.514c0-20.173-15.852-36.531-35.405-36.531s-35.405 16.358-35.405 36.531zM618.214 19.917v715.576c0 20.173 15.852 36.531 35.405 36.531s35.405-16.353 35.405-36.531v-715.576c0-20.173-15.852-36.531-35.405-36.531s-35.405 16.358-35.405 36.531zM334.976 19.917v642.514c0 20.173 15.852 36.531 35.405 36.531s35.405-16.353 35.405-36.531v-642.514c0-20.173-15.852-36.531-35.405-36.531s-35.405 16.358-35.405 36.531zM51.738 19.917v861.696c0 20.173 15.852 36.531 35.405 36.531s35.405-16.353 35.405-36.531v-861.696c0-20.173-15.852-36.531-35.405-36.531s-35.405 16.358-35.405 36.531z" />
<glyph unicode="&#xe905;" glyph-name="branch" d="M908.57 278.897h-44.657v160.041c0 32.886-26.66 59.54-59.54 59.54v0h-262.349v124.211h44.657c32.886 0 59.54 26.66 59.54 59.54v0 148.859c0 32.886-26.66 59.54-59.54 59.54v0h-148.859c-32.886 0-59.54-26.66-59.54-59.54v-148.859c0-32.886 26.66-59.54 59.54-59.54h44.657v-124.206h-262.349c-32.886 0-59.54-26.66-59.54-59.54v0-160.046h-44.657c-32.886 0-59.54-26.66-59.54-59.54v0-148.859c0-32.886 26.66-59.54 59.54-59.54v0h148.859c32.886 0 59.54 26.66 59.54 59.54v0 148.859c0 32.886-26.66 59.54-59.54 59.54v0h-44.657v154.921h262.349v-154.926h-44.657c-32.886 0-59.54-26.66-59.54-59.54v0-148.859c0-32.886 26.66-59.54 59.54-59.54v0h148.859c32.886 0 59.54 26.66 59.54 59.54v0 148.859c0 32.886-26.66 59.54-59.54 59.54v0h-44.657v154.926h262.349v-154.926h-44.657c-32.886 0-59.54-26.66-59.54-59.54v0-148.859c0-32.886 26.66-59.54 59.54-59.54v0h148.859c32.886 0 59.54 26.66 59.54 59.54v148.859c-0.010 32.886-26.665 59.546-59.551 59.546zM437.821 682.23v148.859h148.859v-148.859h-148.859zM264.786 70.492h-148.859v148.859h148.859v-148.859zM586.675 219.351v-148.859h-148.854v148.859h148.854zM908.57 70.492h-148.859v148.859h148.859v-148.859z" />
<glyph unicode="&#xe906;" glyph-name="calendar" d="M874.506 852.444h-168.837v31.355c0 13.45-9.103 22.456-22.656 22.456s-22.656-9.001-22.656-22.456v-31.355h-296.714v31.355c0 13.45-9.103 22.456-22.656 22.456s-22.656-9.001-22.656-22.456v-31.355h-168.837c-49.864 0-90.629-40.356-90.629-89.718v-672.922c0-49.357 40.76-89.718 90.629-89.718h725.012c49.864 0 90.629 40.356 90.629 89.718v672.922c0 49.362-40.765 89.718-90.629 89.718zM171.397 784.497h149.012v-96.937c0-12.641 8.556-21.1 21.289-21.1s21.289 8.458 21.289 21.1v96.937h298.030v-96.937c0-12.641 8.556-21.1 21.289-21.1s21.289 8.458 21.289 21.1v96.937h149.012c25.564 0 42.578-16.819 42.578-42.194v-143.314h-766.367v143.406c0 25.277 21.289 42.102 42.578 42.102zM852.603 67.932h-681.206c-25.564 0-42.578 16.819-42.578 42.194v141.010h492.462l-14.797 38.707-310.764-1.48-166.902-32.671v119.532l617.682 2.278-19.354 38.707-434.862 1.398-163.354-37.827-0.113 177.106h766.362v-446.853c0-21.094-17.014-42.102-42.578-42.102v0z" />
<glyph unicode="&#xe907;" glyph-name="quill" d="M0-64c128 384 463 1024 1024 1024-263-211-384-704-576-704s-192 0-192 0l-192-320h-64z" />
<glyph unicode="&#xe908;" glyph-name="camera" d="M563.876 142.735c-31.396-6.308-64.676-5.668-101.407-0.456l-80.072-116.925h261.996l-80.517 117.381zM514.801 210.171c458.854 0 458.854 661.105 0.415 661.105 0 38.912-0.015 60.887-0.015 64.451 508.8 0 535.255-681.108 121.001-776.381l90.839-133.996h84.946c50.734 0 50.734-65.070 0-65.070h-601.272c-55.834 0-53.274 65.075 0 65.075h88.965l91.279 132.603c-406.318 105.19-402.478 777.764 124.242 777.764 0-15.135 0.015-18.493 0.015-64.445-483.215 0-435.855-661.105-0.415-661.105 0 0-2.698 121.677-2.806 121.677-284.79-2.14-292.475 412.559-0.645 412.559 0.143 0 5.453 0 5.453 0s0.532-60.728 0.532-68.326c-203.095 0-178.775-275.907-5.985-275.907 176.65 0 177.93 275.907 6.728 275.907 0 7.542-1.167 68.255-0.302 68.229 268.145 0 276.465-412.462-5.78-412.462-0.102 0 2.806-121.677 2.806-121.677z" />
<glyph unicode="&#xe909;" glyph-name="center" d="M827.628 841.4h-632.791c-19.871 0-35.978 16.108-35.978 35.978s16.108 35.978 35.978 35.978h632.791c19.871 0 35.978-16.108 35.978-35.978s-16.113-35.978-35.978-35.978zM863.601 553.58h-704.742c-19.871 0-35.978 16.108-35.978 35.978s16.108 35.978 35.978 35.978h704.748c19.871 0 35.978-16.108 35.978-35.978s-16.113-35.978-35.983-35.978zM827.628 265.759h-632.791c-19.871 0-35.978 16.108-35.978 35.978s16.108 35.978 35.978 35.978h632.791c19.871 0 35.978-16.108 35.978-35.978s-16.113-35.978-35.978-35.978zM935.557-22.062h-848.655c-19.871 0-35.978 16.108-35.978 35.978s16.108 35.978 35.978 35.978h848.655c19.871 0 35.978-16.108 35.978-35.978s-16.108-35.978-35.978-35.978z" />
<glyph unicode="&#xe90a;" glyph-name="charge_pole" d="M878.162 22.262c103.598 0 80.558-65.321 33.316-65.321h-792.883c-45.635 0-75.075 65.326 32.010 65.326 0 58.373 0 849.219 0 849.219 0 36.076 29.245 65.326 65.326 65.326h592.338c36.076 0 67.681-29.056 67.681-64.492s2.212-826.516 2.212-850.058zM812.836 846.008c0 24.392-22.308 25.661-24.172 25.477h-547.261c-12.129 1.833-25.477-11.965-25.477-23.516v-825.708h592.338l4.572 823.747zM671.944 786.499c39.736 0 41.656-78.259 0-78.259v0h-313.815c-45.809 0-45.809 78.259 0 78.259h313.815zM594.386 636.375l-60.749-227.804h122.255l-210.335-334.111 62.264 231.598h-133.642l220.206 330.317z" />
<glyph unicode="&#xe90b;" glyph-name="chart" d="M958.74-4.137h-894.766c-25.436 0-46.054 20.618-46.054 46.054v712.98c0 65.582 92.764 66.862 92.764 0v-666.266h848.056c25.615 0 46.382-20.767 46.382-46.382s-20.767-46.387-46.382-46.387v0zM641.92 192c-33.92 0-61.481 29.097-61.481 54.528v297.18c0 25.436 26.947 54.477 59.587 54.477s59.5-29.041 59.5-54.477v-295.859c-0.005-25.436-23.685-55.849-57.605-55.849zM444.16 194.56c-33.92 0-59.781 26.537-59.781 51.968v482.053c0 25.436 29.701 50.299 61.061 50.299s58.020-24.863 58.020-50.299v-480.737c0-25.431-25.38-53.284-59.3-53.284zM839.639 192.092c-33.28 0-61.824 29-61.824 54.436v482.053c0 25.436 26.025 53.499 60.585 53.499s58.496-28.063 58.496-53.499v-480.737c0-25.431-23.977-55.752-57.257-55.752zM187.663 246.528v92.764c0 25.436 24.177 56.223 61.297 56.223s57.784-30.792 57.784-56.223v-91.448c0-25.436-25.784-53.284-57.784-53.284s-61.297 26.537-61.297 51.968z" />
<glyph unicode="&#xe90c;" glyph-name="chinese" d="M925.015 456.668c0 0 0-147.758 0-176.773s-17.178-58.010-58.772-58.010c-12.109 0-715.924-0.020-717.763-0.020-16.773 0-55.357 8.105-55.357 53.76s0 162.458 0 162.458 185.907 1.94 185.907 1.592c0-100.050 76.385-132.219 114.877-132.219 48.333 0 76.585 26.204 77.399 27.453 3.656 5.97 10.373 39.409-11.244 24.842-4.383-3.108-28.703-21.181-61.445-21.181-114.033 0-112.753 208.916-2.094 208.916 33.981 2.913 66.78-24.381 69.816-24.837 5.98-1.208 9.979 23.429 3.661 29.025-1.050 1.536-25.201 26.409-72.166 26.409-16.261 0.205-118.804-5.074-118.804-138.409-0.005-0.814-185.907-1.592-185.907-1.592s0 125.123 0 173.763c2.452 47.145 26.342 51.415 91.279 49.92 0 5.975-0.082 55.951-0.082 55.951l-53.309 0.005c-50.545 0-91.515-40.975-91.515-91.515v-366.070c0-50.545 40.975-91.515 91.515-91.515h758.287c50.545 0 91.515 40.975 91.515 91.515v366.060c0 50.545-40.975 91.515-91.515 91.515h-704.978c0 0 0.082-53.949 0.082-55.951 3.932 0 676.869 0.159 678.717 0.159 45.681 0 61.891-29.599 61.891-62.029 0-25.17 0-142.505 0-142.505h-196.424l0.799-131.896c0-17.009-40.105-19.087-51.773-2.094-2.929 4.163-109.819 204.652-113.48 212.844v0c0-9.764 0-219.904 0-219.904 0-11.054-33.731-9.134-33.731 0v244.48c0 25.426 40.904 23.721 55.956 5.228 2.422-3.328 108.252-207.089 108.252-207.089v0c0 10.808 0 210.488 0 210.488 0 12.319 33.464 12.744 33.464 0l0.502-111.549 196.439-1.224z" />
<glyph unicode="&#xe90d;" glyph-name="collapse" d="M475.848 676.014l-371.451-371.446c-20.541-20.541-20.541-53.77 0-74.312 20.485-20.485 53.77-20.541 74.312 0l334.29 334.29 334.29-334.29c20.485-20.485 53.77-20.541 74.312 0s20.485 53.77 0 74.312l-371.451 371.446c-20.531 20.485-53.76 20.485-74.301 0z" />
<glyph unicode="&#xe90e;" glyph-name="collect" d="M918.292 920.433h-386.35c-34.304 0-62.116-28.042-62.116-62.638v-369.546l-95.017-0.036v291.287c0 25.943-20.859 46.976-46.582 46.976h-98.299v31.319c0 34.591-27.812 62.638-62.111 62.638h-62.111c-34.304 0-62.116-28.042-62.116-62.638v-107.105c0-34.591 27.812-62.638 62.116-62.638h62.116c34.304 0 62.116 28.042 62.116 62.638v28.81h98.294v-291.251h-98.304v38.205c0 34.591-27.812 62.638-62.116 62.638h-62.106c-34.304 0-62.116-28.042-62.116-62.638v-151.578c0-34.591 27.812-62.638 62.116-62.638h62.116c34.304 0 62.116 28.042 62.116 62.638v38.205h98.294v-291.251h-98.304v28.81c0 34.591-27.812 62.638-62.116 62.638h-62.106c-34.304 0-62.116-28.042-62.116-62.638v-107.105c0-34.591 27.812-62.638 62.116-62.638h62.116c34.304 0 62.116 28.042 62.116 62.638v31.319h98.294c25.728 0 46.582 21.028 46.582 46.976v291.072l93.153 0.184v-369.546c0-34.591 27.812-62.638 62.116-62.638h388.214c34.304 0 62.116 28.042 62.116 62.638v814.254c-0.005 34.591-27.812 62.638-62.121 62.638zM136.643 732.524c-51.2 0-48.942-1.966-48.942 72.596s-5.13 68.332 48.625 68.332 47.027 6.548 47.027-68.332 4.49-72.596-46.71-72.596zM136.96 356.716c-51.2 0-49.265-14.116-49.265 93.947s-7.695 93.957 49.265 93.957 48.876 14.3 48.876-93.957 2.324-93.947-48.876-93.947zM138.24 25.375c-52.905 0-48.056-4.89-48.056 72.545 0 77.44-4.854 70.892 47.841 70.892s47.811 6.333 47.811-70.682c0-77.010 5.304-72.755-47.596-72.755zM935.685 187.546v-144c0-9.687-7.788-17.536-17.388-17.536 0 0-381.88 0-386.35 0s-16.435 8.591-17.388 17.536l0.026 143.995 77.855-1.541v-103.706h104.376v105.252l-182.262-0.005v157.88h77.885v-105.252h104.376v105.252h-182.262v157.865l77.885 0.077v-105.313h104.376v105.242h-182.262v157.829l77.885 0.020v-105.221h104.376v105.252l-182.262-0.051v157.921h77.885v-105.252h104.376v105.252c0 0-179.251 0-182.262 0 0 30.945-1.7 54.41 17.388 54.41h386.35c20.429 0 17.388-11.694 17.388-54.41-4.639 0-186.68 0-186.68 0v-105.252h104.376v105.252h82.304v-157.865h-186.68v-105.252h104.376v105.196h82.304v-157.829h-186.68v-105.252h104.376v105.252h82.304v-157.87h-186.68v-105.252h104.376v105.252h82.304l0.005-157.875h-186.685v-105.252h104.376v105.252h82.309z" />
<glyph unicode="&#xe90f;" glyph-name="collect_c1" d="M914.826 907.039h-800.031c-32.072 0-58.066-25.999-58.066-58.066v-801.618c0-32.072 25.999-58.066 58.066-58.066h800.026c32.072 0 58.066 25.999 58.066 58.066v801.618c0.005 32.072-25.994 58.066-58.061 58.066zM841.027 164.69c0-24.3-19.538-43.996-43.633-43.996h-272.691c-24.095 0-43.633 19.702-43.633 43.996v259.579l-65.434-0.128v-204.457c0-18.227-14.648-32.998-32.722-32.998h-69.038v-22.001c0-24.3-19.538-43.996-43.633-43.996h-43.633c-24.095 0-43.633 19.702-43.633 43.996v75.238c0 24.3 19.538 43.996 43.633 43.996h43.622c24.095 0 43.633-19.702 43.633-43.996v-20.239h69.053v204.58h-69.043v-26.834c0-24.3-19.538-43.996-43.633-43.996h-43.633c-24.095 0-43.633 19.702-43.633 43.996v106.47c0 24.3 19.538 43.996 43.633 43.996h43.622c24.095 0 43.633-19.702 43.633-43.996v-26.839h69.053v204.585h-69.043v-20.239c0-24.3-19.538-43.996-43.633-43.996h-43.633c-24.095 0-43.633 19.702-43.633 43.996v75.233c0 24.3 19.538 43.996 43.633 43.996h43.628c24.095 0 43.628-19.702 43.628-43.996v-22.001h69.048c18.068 0 32.722-14.776 32.722-32.998v-204.605l66.744 0.026v259.579c0 24.3 19.533 43.996 43.633 43.996h271.38c24.1 0 43.633-19.702 43.638-43.996v-571.95zM650.629 658.877c0-28.559-23.153-51.717-51.717-51.717h-7.183c-28.559 0-51.717 23.153-51.717 51.717v20.111c0 28.559 23.153 51.717 51.717 51.717h7.183c28.559 0 51.717-23.153 51.717-51.717v-20.111zM785.306 658.877c0-28.559-23.153-51.717-51.717-51.717h-7.183c-28.559 0-51.717 23.153-51.717 51.717v20.111c0 28.559 23.153 51.717 51.717 51.717h7.183c28.559 0 51.717-23.153 51.717-51.717v-20.111zM650.629 513.065c0-28.559-23.153-51.717-51.717-51.717h-7.183c-28.559 0-51.717 23.153-51.717 51.717v20.111c0 28.559 23.153 51.717 51.717 51.717h7.183c28.559 0 51.717-23.153 51.717-51.717v-20.111zM785.306 513.065c0-28.559-23.153-51.717-51.717-51.717h-7.183c-28.559 0-51.717 23.153-51.717 51.717v20.111c0 28.559 23.153 51.717 51.717 51.717h7.183c28.559 0 51.717-23.153 51.717-51.717v-20.111zM650.629 363.802c0-28.559-23.153-51.717-51.717-51.717h-7.183c-28.559 0-51.717 23.153-51.717 51.717v20.111c0 28.559 23.153 51.717 51.717 51.717h7.183c28.559 0 51.717-23.153 51.717-51.717v-20.111zM785.306 363.802c0-28.559-23.153-51.717-51.717-51.717h-7.183c-28.559 0-51.717 23.153-51.717 51.717v20.111c0 28.559 23.153 51.717 51.717 51.717h7.183c28.559 0 51.717-23.153 51.717-51.717v-20.111zM650.629 217.994c0-28.559-23.153-51.717-51.717-51.717h-7.183c-28.559 0-51.717 23.153-51.717 51.717v20.111c0 28.559 23.153 51.717 51.717 51.717h7.183c28.559 0 51.717-23.153 51.717-51.717v-20.111zM785.306 217.994c0-28.559-23.153-51.717-51.717-51.717h-7.183c-28.559 0-51.717 23.153-51.717 51.717v20.111c0 28.559 23.153 51.717 51.717 51.717h7.183c28.559 0 51.717-23.153 51.717-51.717v-20.111z" />
<glyph unicode="&#xe910;" glyph-name="control" d="M833.946 703.488c0 0-0.343 157.015-0.343 187.566 0 37.376-69.192 38.231-69.192 0.722 0-30.341 0.343-188.416 0.343-188.416-146.939-31.785-153.631-188.39-89.585-254.060l-55.235-38.83c-26.476 27.945-62.198 44.349-91.044 52.424 0 0-0.778 399.969-0.778 426.778 0 41.313-69.187 42.168-69.187-3.968 0-31.514 0.773-422.943 0.773-422.943-53.294-15.14-124.503-58.67-124.503-156.989l-89.436 0.067 0.118 227.011c179.722 32.271 170.122 285.071-0.568 311.47 0 0-0.020 11.095-0.082 44.8-0.077 42.24-69.263 40.407-69.187-2.048 0.041-22.4 0.077-42.88 0.077-42.88-176.118-39.071-176.118-277.151 0.568-311.46 0 0-0.128-485.432-0.046-530.586s69.274-45.148 69.192 0.128c-0.082 45.276-0.056 303.57-0.056 303.57l89.411-0.061c0.614-91.013 71.603-139.494 125.076-154.47 0 0 0.276-100.961 0.276-150.108 0.082-43.95 69.279-43.827 69.197 0.128 0 52.434-0.276 150.108-0.276 150.108 53.596 15.222 129.137 54.646 129.137 158.1-0.082 44.17-16.133 76.948-38.666 100.936l55.235 38.83c25.441-30.474 60.498-49.091 90.163-57.405 0 0 0.712-350.853 0.712-390.149 0-42.706 69.192-43.131 69.192 0.768 0 43.566-0.712 389.509-0.712 389.509 180.521 26.532 183.081 282.532-0.573 311.46zM214.185 596.48c-129.326 0-132.92 183.112 0 183.112 125.015 0 121.175-183.112 0-183.112zM405.509 306.089c0 118.871 183.112 118.871 183.112 0 0-119.209-183.112-120.489-183.112 0zM802.56 454.569c-127.529 0-131.2 183.112 0 183.112 131.84 0 126.874-183.112 0-183.112z" />
<glyph unicode="&#xe911;" glyph-name="control_c1" d="M912.015 903.27h-800.031c-32.072 0-58.066-25.999-58.066-58.066v-801.618c0-32.072 25.999-58.066 58.066-58.066h800.026c32.072 0 58.066 25.999 58.066 58.066v801.618c0.005 32.072-25.994 58.066-58.061 58.066zM319.596 144.077c0-27.807-13.036-25.708-13.036-25.708s-14.264-3.671-14.264 25.713c-0.041 53.699 0.287 333.312-0.215 333.373-54.246 6.994-96.154 53.356-96.154 109.501 0 56.279 42.112 102.728 96.543 109.553 1.454 0.184 0.179 33.495 1.326 56.463 0.655 13.112 4.982 17.889 12.544 17.889 7.444 0 11.807-5.827 12.457-18.657 1.116-21.996-0.394-55.475 1.070-55.654 54.6-6.671 96.886-53.192 96.886-109.594 0-56.535-42.486-103.142-97.275-109.64-0.466-0.056-0.015-280.136 0.118-333.24zM525.394 225.444c-0.466-0.056-0.015-28.262 0.118-81.367 0-27.807-13.036-25.708-13.036-25.708s-14.264-3.671-14.264 25.713c-0.041 53.699 0.287 81.439-0.215 81.5-54.246 6.994-96.154 53.35-96.154 109.501 0 56.284 42.112 102.728 96.543 109.553 1.454 0.184 0.179 285.363 1.326 308.337 0.655 13.112 4.982 17.889 12.544 17.889 7.444 0 11.807-5.827 12.457-18.657 1.116-21.996-0.394-307.348 1.070-307.528 54.6-6.671 96.886-53.192 96.886-109.594 0-56.535-42.486-103.142-97.275-109.64zM733.629 477.317c-0.466-0.056-0.015-280.136 0.113-333.24 0-27.807-13.036-25.708-13.036-25.708s-14.264-3.671-14.264 25.713c-0.041 53.699 0.287 333.312-0.215 333.373-54.246 6.994-96.154 53.356-96.154 109.501 0 56.279 42.112 102.728 96.543 109.553 1.454 0.184 0.179 33.495 1.326 56.463 0.655 13.112 4.982 17.889 12.544 17.889 7.444 0 11.807-5.827 12.457-18.657 1.116-21.996-0.394-55.475 1.070-55.654 54.6-6.671 96.886-53.192 96.886-109.594 0-56.535-42.486-103.142-97.27-109.64z" />
<glyph unicode="&#xe912;" glyph-name="copy" d="M631.467 635.733c37.703 0 68.267-30.564 68.267-68.267v0-494.933c0-37.703-30.564-68.267-68.267-68.267v0h-494.933c-37.703 0-68.267 30.564-68.267 68.267v0 494.933c0 37.703 30.564 68.267 68.267 68.267v0h494.933zM631.467 704h-494.933c-75.405 0-136.533-61.128-136.533-136.533v0-494.933c0-75.405 61.128-136.533 136.533-136.533v0h494.933c75.405 0 136.533 61.128 136.533 136.533v0 494.933c0 75.405-61.128 136.533-136.533 136.533v0zM921.6 960h-563.2c-56.554 0-102.4-45.846-102.4-102.4v0-85.333h68.267v85.333c0.375 18.699 15.435 33.759 34.098 34.133l0.035 0.001h563.2c18.699-0.375 33.759-15.435 34.133-34.098l0.001-0.035v-563.2c-0.375-18.699-15.435-33.759-34.098-34.133l-0.035-0.001h-85.333v-68.267h85.333c56.554 0 102.4 45.846 102.4 102.4v0 563.2c0 56.554-45.846 102.4-102.4 102.4v0z" />
<glyph unicode="&#xe913;" glyph-name="db" d="M931.318 570.045c38.298 28.969 61.896 73.334 64.512 121.283 0 133.54-216.755 221.435-483.83 221.435s-483.83-87.905-483.83-221.44c2.616-47.949 26.214-92.314 64.512-121.283-74.762-63.16-92.682-174.095 0-241.92-38.134-28.826-61.711-72.919-64.512-120.637 0-316.708 967.66-311.588 967.66 0-2.801 47.718-26.378 91.812-64.512 120.637 78.177 60.145 73.907 178.76 0 241.925zM512 858.486c545.28 0 542.72-339.451 0-339.451-545.28 0-545.28 339.451 0 339.451zM931.318 207.488c0-235.622-838.636-235.622-838.636 0 5.453 33.843 25.82 63.452 55.48 80.64 250.342-114.048 513.172-98.688 727.685 0 29.655-17.188 50.022-46.792 55.47-80.64zM87.562 449.403c4.808 34.591 25.272 65.044 55.48 82.575 240.957-101.898 514.877-96.778 732.8 0.005 30.141-17.597 50.58-48.015 55.48-82.575 0-241.92-843.761-241.92-843.761-0.005z" />
<glyph unicode="&#xe914;" glyph-name="delete" d="M864 704h-704c-17.679 0-32 14.321-32 32s14.321 32 32 32h704c17.679 0 32-14.321 32-32s-14.321-32-32-32zM608 832h-192c-17.679 0-32 14.321-32 32s14.321 32 32 32h192c17.679 0 32-14.321 32-32s-14.321-32-32-32zM224 640c17.679 0 32-14.321 32-32v-480c0-35.343 28.657-64 64-64h64v544c0 17.679 14.321 32 32 32s32-14.321 32-32v-544h128v544c0 17.679 14.321 32 32 32s32-14.321 32-32v-544h64c35.343 0 64 28.657 64 64v480c0 17.679 14.321 32 32 32s32-14.321 32-32v-480c0-70.687-57.313-128-128-128h-384c-70.687 0-128 57.313-128 128v480c0 17.679 14.321 32 32 32z" />
<glyph unicode="&#xe915;" glyph-name="delete_c" d="M512.589 925.537c-264.064 0-478.131-214.067-478.131-478.131s214.067-478.126 478.131-478.126 478.131 214.067 478.131 478.131-214.067 478.126-478.131 478.126zM698.86 260.736c-9.047-9.119-21.381-14.218-34.227-14.141l0.476 0.476c-12.708-0.072-24.924 4.915-33.946 13.865l-118.907 119.096-118.246-118.615c-8.945-9.124-21.171-14.29-33.946-14.346-26.404-0.154-47.939 21.13-48.092 47.534-0.077 12.846 5.023 25.18 14.141 34.227l118.63 118.815-118.144 118.339c-17.178 20.055-14.843 50.243 5.217 67.415 17.9 15.329 44.298 15.329 62.203 0l118.098-118.282 118.574 118.764c20.055 17.178 50.243 14.843 67.415-5.217 15.329-17.9 15.329-44.298 0-62.203l-118.533-118.907 119.014-119.199c18.744-18.596 18.867-48.87 0.271-67.62z" />
<glyph unicode="&#xe916;" glyph-name="device_list" d="M273.126 549.356h462.858c52.337 0 53.243 64.911 0 64.911h-462.858c-47.258 0-45.455-64.911 0-64.911zM273.126 354.601h462.858c54.144 0 51.441 64.911 0 64.911h-462.858c-48.154 0.005-48.154-64.911 0-64.911zM279.649 159.852h462.858c44.918 0 43.116 64.911 0 64.911h-462.858c-56.484 0-54.676-64.911 0-64.911zM883.144 798.781c-58.793 0-59.469-64.911 0-64.911 19.415 0 35.159-14.531 35.159-32.456v-628.695c0-17.925-15.744-32.456-35.159-32.456h-744.125c-19.415 0-35.159 14.531-35.159 32.456v628.685c0 17.925 15.744 32.456 35.159 32.456 45.87 0 46.546 64.911 0 64.911-58.25 0-105.472-43.597-105.472-97.377v-628.69c0-53.78 47.222-97.377 105.472-97.377h744.12c58.25 0 105.472 43.597 105.472 97.377v628.7c0.005 53.78-47.217 97.377-105.467 97.377zM273.126 733.865h462.858c54.825 0 54.149 64.911 0 64.911h-54.031c-19.318 87.839-112.113 144.589-207.258 126.751-69.176-12.964-123.249-62.874-137.293-126.746h-64.271c-48.829 0-49.505-64.916-0.005-64.916zM509.676 863.698c44.401-0.195 83.845-26.204 98.442-64.922h-196.884c14.602 38.717 54.047 64.727 98.442 64.922z" />
<glyph unicode="&#xe917;" glyph-name="domain" d="M45.476 830.377c0-38.999 0-714.46 0-767.212s35.958-82.324 83.763-82.324 701.297 0 766.495 0c81.321 0 85.97 85.012 85.97 85.012s0 688.599 0 767.867-83.482 83.348-83.482 83.348-721.178 0-767.329 0-85.417-47.693-85.417-86.692zM205.373 843.812c47.862 0 125.517 0 125.517 0s0-64.952 0-137.083-83.2-82.683-83.2-82.683h-127.493c0 0 0 79.908 0 133.146s37.315 86.62 85.176 86.62zM822.774 51.83c-84.552 0-364.129 0-364.129 0s0 286.797 0 363.725 83.968 83.953 83.968 83.953h363.704v-362.614c0.005-0.005 1.009-85.064-83.543-85.064zM906.322 565.432h-361.508c-113.454 0-155.315-90.542-155.315-150.615 0-32.236 0-362.993 0-362.993s-101.586 0-184.131 0-85.171 83.139-85.171 83.139v423.148h118.385c133.335 0 161.454 98.468 161.454 143.892s0 141.809 0 141.809h422.354c0 0 83.927 1.485 83.927-84.081s0.005-194.299 0.005-194.299z" />
<glyph unicode="&#xe918;" glyph-name="domain_list" d="M838.405 885.391h-652.81c-54.994 0-99.732-44.754-99.732-99.738v-749.307c0-15.017 26.778-41.467 53.094-21.376l111.99 88.207 111.99-88.207c9.871-7.757 23.777-7.757 33.664 0l116.204 91.52 112.63-88.704c9.882-7.757 23.782-7.757 33.664 0l111.898 88.136 114.043-89.815c31.442-25.068 53.1 5.222 53.1 20.244v749.302c0.005 54.989-44.733 99.738-99.732 99.738zM862.582 107.146l-90.45 71.229c-9.318 7.316-22.431 7.316-31.749 0l-105.533-83.118-106.214 83.656c-9.318 7.316-22.431 7.316-31.749 0l-109.588-86.308-105.615 83.185c-9.318 7.316-22.431 7.316-31.749 0l-88.515-69.709v216.402h598.548v76.293l-508.396 0.010v-76.303h-90.291l0.143 161.352 598.548-0.005v76.595l-508.396 0.015v-76.605h-90.153v165.765l489.139 0.138-0.307 77.297-375.485 0.010v-77.445h-113.347v117.002c0 23.583 19.18 42.752 42.752 42.752h615.649c23.572 0 42.752-19.174 42.752-42.752l0.005-659.456z" />
<glyph unicode="&#xe919;" glyph-name="edit" d="M354.785 297.411l208.415 59.151-148.782 147.881-59.571-207.027h-0.061zM911.36 702.556l-148.782 147.937-327.439-325.453 148.782-147.876 327.439 325.391zM867.988 154.772c0-51.379-41.682-93.061-93.061-93.061h-558.684c-51.405 0-93.092 41.656-93.123 93.061v558.623c0.036 51.4 41.728 93.041 93.123 93.005 0.020 0 0.041 0 0.061 0h372.434l93.061 93.061h-496.517c-85.647 0-155.1-69.396-155.167-155.044v-620.605c0-85.693 69.468-155.167 155.167-155.167v0h620.667c85.673 0.031 155.105 69.494 155.105 155.167v496.461l-93.061-93.061v-372.439h-0.005zM980.511 826.88l-93.005 92.401c-15.421 15.299-41.262 14.459-57.708-1.807l-44.575-44.452 148.782-147.876 44.636 44.334c16.445 16.384 17.285 42.045 1.869 57.344v0.056z" />
<glyph unicode="&#xe91a;" glyph-name="english" d="M283.776 439.255v-115.297c-0.517-4.27 9.999-14.597 13.286-14.612h129.659c11.894 0 11.679 31.089-0.794 31.089h-106.281v96.179h89.805c14.228 0 14.653 27.1 0 27.1h-91.136v83.692h106.276c12.744 0 11.889 29.763 0 29.763h-127.529c-3.282-0.015-13.804-10.342-13.286-14.612v-123.3l-195.773 0.189c0 0 0 152.771 0 172.396 0 57.175 66.796 50.074 66.796 50.074s-27.279 54.159-28.16 55.798c-56.668-0.056-92.262-40.965-92.262-91.505v-366.070c0-50.545 28.344-91.515 91.515-91.515 16.189 0 758.287 0 758.287 0 50.545 0 91.515 40.975 91.515 91.515v366.060c0 50.545-40.975 91.515-91.515 91.515h-757.54l28.16-55.803c0 0 699.924 0.010 703.201 0.010 39.706 0 61.891-19.364 61.891-56.909s0-130.693 0-130.693l-191.411 0.082 0.906-148.91c0-21.704-44.585-16.584-51.773-2.094-2.929 4.163-109.819 204.652-113.48 212.844v0c0-9.764 0-219.904 0-219.904 0-12.017-33.731-11.377-33.731 0v244.48c0 26.281 44.744 22.441 55.956 5.228 2.422-3.328 108.252-207.089 108.252-207.089v0c0 10.808 0 210.488 0 210.488 0 13.916 33.464 14.080 33.464 0l0.404-95.043 191.411-0.082 0.005-194.422c0 0 3.144-58.030-49.49-58.030-34.14 0-732.017 0-732.165 0-32.64 0-50.237 20.050-50.237 43.52s0 174.060 0 174.060l195.773-0.189z" />
<glyph unicode="&#xe91b;" glyph-name="enlarge" d="M512.579 856.054c225.807 0 408.858-183.050 408.858-408.858s-183.050-408.858-408.858-408.858-408.858 183.050-408.858 408.858c0.348 225.664 183.194 408.515 408.858 408.858zM512.579 918.958c-260.547 0-471.757-211.21-471.757-471.757s211.21-471.757 471.757-471.757 471.757 211.215 471.757 471.757-211.215 471.757-471.757 471.757zM752.707 409.953h-208.031c0 0 0.394-178.048 0.394-218.726s-64.189-41.738-64.189 0c0 45.967 0.394 218.726 0.394 218.726h-210.406c-41.211 0-41.211 60.232 0 60.232h210.406c0 0-0.394 190.725-0.394 229.821s64.056 42.26 64.056 0-0.66-229.821-0.66-229.821h208.425c44.38-0.005 44.38-60.232 0.005-60.232z" />
<glyph unicode="&#xe91c;" glyph-name="exit" d="M510.874 81.152c-203.802 0-367.268 165.586-367.268 367.268s165.591 367.263 367.268 367.263c76.426 0 146.483-23.352 205.926-63.688 74.301 0 89.165-2.125 180.449-2.125-89.165 114.642-229.279 186.819-386.376 186.819-271.734 0-490.394-218.66-490.394-490.394s218.66-490.394 490.394-490.394c157.097 0 295.086 72.182 386.371 186.819h-178.324c-59.438-38.216-131.62-61.568-208.046-61.568zM703.811 287.073l74.301-74.301 235.648 235.643-235.643 235.643-74.301-74.301 101.898-101.898h-430.956v-118.886h430.956l-101.903-101.898z" />
<glyph unicode="&#xe91d;" glyph-name="fault" d="M512 857.6c14.336 0 30.72-14.336 43.008-36.864l388.437-699.733c7.314-10.21 11.696-22.953 11.696-36.719 0-8.152-1.536-15.945-4.335-23.105l0.149 0.432c-11.351-13.651-28.338-22.277-47.341-22.277-2.563 0-5.089 0.157-7.57 0.462l0.297-0.030h-768.683c-2.183-0.275-4.71-0.432-7.273-0.432-19.002 0-35.99 8.627-47.26 22.177l-0.081 0.1c-2.65 6.728-4.186 14.521-4.186 22.673 0 13.767 4.382 26.51 11.826 36.911l-0.13-0.192 387.755 699.733c9.557 22.528 29.355 36.864 43.691 36.864zM512 925.867c-45.661-3.479-84.016-31.574-102.087-70.919l-0.313-0.761-388.437-699.733c-12.872-19.598-20.532-43.62-20.532-69.431 0-20.989 5.065-40.795 14.041-58.262l-0.335 0.717c22.708-34.859 61.497-57.582 105.594-57.582 2.719 0 5.418 0.086 8.094 0.257l-0.366-0.019h768.683c2.568-0.187 5.563-0.294 8.584-0.294 43.547 0 81.918 22.16 104.452 55.818l0.286 0.455c8.705 16.75 13.81 36.572 13.81 57.587 0 25.811-7.701 49.823-20.931 69.864l0.295-0.475-388.437 701.099c-18.384 40.106-56.739 68.201-101.986 71.655l-0.414 0.025zM512 260.267c-18.851 0-34.133 15.282-34.133 34.133v0 341.333c0 18.851 15.282 34.133 34.133 34.133s34.133-15.282 34.133-34.133v0-341.333c0-18.851-15.282-34.133-34.133-34.133v0zM546.133 157.867c0-18.851-15.282-34.133-34.133-34.133s-34.133 15.282-34.133 34.133c0 18.851 15.282 34.133 34.133 34.133s34.133-15.282 34.133-34.133z" />
<glyph unicode="&#xe91e;" glyph-name="file" d="M70.508 62.413c-17.408 0-31.514 13.809-31.514 30.848v678.636c0 85.181 70.548 154.235 157.578 154.235h252.124c87.030 0 157.578-69.053 157.578-154.235 0-17.034-14.111-30.848-31.514-30.848-17.408 0-31.514 13.809-31.514 30.848 0 51.108-42.332 92.539-94.546 92.539h-252.134c-52.219 0-94.546-41.431-94.546-92.539v-678.636c0-17.039-14.111-30.848-31.514-30.848zM858.399 710.2c34.811 0 63.032-27.622 63.032-61.696v-555.249c0-34.074-28.221-61.696-63.032-61.696h-693.345c-34.811 0-63.032 27.622-63.032 61.696v555.249c0 34.074 28.221 61.696 63.032 61.696h693.345zM858.399 771.896h-693.345c-69.622 0-126.065-55.245-126.065-123.387v-555.249c0-68.147 56.438-123.387 126.065-123.387h693.345c69.622 0 126.065 55.245 126.065 123.387v555.244c0 68.147-56.443 123.392-126.065 123.392zM354.145 525.117h-94.546c-17.408 0-31.514 13.809-31.514 30.848s14.111 30.848 31.514 30.848h94.546c17.408 0 31.514-13.809 31.514-30.848s-14.106-30.848-31.514-30.848zM354.145 340.035h-94.546c-17.408 0-31.514 13.809-31.514 30.848s14.111 30.848 31.514 30.848h94.546c17.408 0 31.514-13.809 31.514-30.848s-14.106-30.848-31.514-30.848zM354.145 154.952h-94.546c-17.408 0-31.514 13.809-31.514 30.848s14.111 30.848 31.514 30.848h94.546c17.408 0 31.514-13.809 31.514-30.848s-14.106-30.848-31.514-30.848zM763.853 525.117h-283.643c-17.408 0-31.514 13.809-31.514 30.848s14.111 30.848 31.514 30.848h283.643c17.408 0 31.514-13.809 31.514-30.848s-14.111-30.848-31.514-30.848zM763.853 340.035h-283.643c-17.408 0-31.514 13.809-31.514 30.848s14.111 30.848 31.514 30.848h283.643c17.408 0 31.514-13.809 31.514-30.848s-14.111-30.848-31.514-30.848zM763.853 154.952h-283.643c-17.408 0-31.514 13.809-31.514 30.848s14.111 30.848 31.514 30.848h283.643c17.408 0 31.514-13.809 31.514-30.848s-14.111-30.848-31.514-30.848z" />
<glyph unicode="&#xe91f;" glyph-name="gateway" d="M195.625 149.545c0-21.207 17.193-38.4 38.4-38.4 21.094 0 38.533 17.352 38.717 38.4h49.28c0.271-20.977 17.254-38.4 38.292-38.4s38.159 17.423 38.426 38.4h117.842c0.312-20.936 17.28-38.4 38.292-38.4h235.52c21.207 0 38.4 17.193 38.4 38.4v0c0 21.207-17.193 38.4-38.4 38.4h-235.52c-21.028 0-38.006-17.439-38.292-38.4h-117.837c-0.287 20.961-17.398 38.4-38.426 38.4-21.084 0-38.093-17.362-38.292-38.4h-49.28c-0.241 20.997-17.664 38.4-38.717 38.4-20.424 0-38.405-16.64-38.405-38.4l-92.037 96.241 16.364 16.364v71.644l-16.364 16.364v191.237l90.972-93.394c0-21.207 17.193-38.4 38.4-38.4 21.094 0 38.533 17.352 38.717 38.4h49.28c0.271-20.977 17.254-38.4 38.292-38.4s38.159 17.423 38.426 38.4h117.842c0.312-20.936 17.28-38.4 38.292-38.4h235.52c21.207 0 38.4 17.193 38.4 38.4v0c0 21.207-17.193 38.4-38.4 38.4h-235.52c-21.028 0-38.006-17.439-38.292-38.4h-117.837c-0.287 20.961-17.398 38.4-38.426 38.4-21.084 0-38.093-17.362-38.292-38.4h-49.28c-0.241 20.997-17.664 38.4-38.717 38.4-20.28 0-38.4-15.36-38.4-38.4l-90.977 93.394 16.364 16.364v72.212l-16.364 16.364v191.795l90.972-94.024c0-21.207 17.193-38.4 38.4-38.4 21.094 0 38.533 17.352 38.717 38.4h49.28c0.271-20.977 17.254-38.4 38.292-38.4s38.159 17.423 38.426 38.4h117.842c0.312-20.936 17.28-38.4 38.292-38.4h235.52c21.207 0 38.4 17.193 38.4 38.4v0c0 21.207-17.193 38.4-38.4 38.4h-235.52c-21.028 0-38.006-17.439-38.292-38.4h-117.837c-0.287 20.961-17.398 38.4-38.426 38.4-21.084 0-38.093-17.362-38.292-38.4h-49.28c-0.241 20.997-17.664 38.4-38.717 38.4-20.813 0-37.78-17.736-38.4-38.4l-90.977 94.024 16.364 16.364h783.59l16.364-16.364 0.558-194.058-16.364-14.1h-784.148v-72.212h783.59l16.364-16.364v-193.5l-16.364-14.1h-783.59v-71.644h783.59l16.364-16.364v-194.063l-16.364-14.1h-783.59l9.16-62.121h765.271c47.38 0 85.949 38.569 85.949 85.949v187.331c0 18.729-6.057 36.367-17.080 51.241 11.018 14.874 17.080 32.507 17.080 50.683v187.331c0 18.729-6.057 36.367-17.080 51.241 11.018 14.874 17.080 32.507 17.080 50.683l-0.005 188.431c0 47.38-38.569 85.949-85.949 85.949h-765.266c-47.38 0-85.949-38.569-85.949-85.949v-187.325c0-18.729 6.057-36.367 17.080-51.241-11.013-14.874-17.080-32.507-17.080-51.241v-187.325c0-18.729 6.057-36.367 17.080-51.241-11.018-14.874-17.080-32.507-17.080-51.241v-187.325c0-47.38 38.569-85.949 85.949-85.949l-9.16 62.121-16.364 16.364v191.8l92.037-96.241z" />
<glyph unicode="&#xe920;" glyph-name="gateway_c1" d="M919.148 914.34h-814.295c-33.93 0-61.44-27.51-61.44-61.44v-177.060c0-33.93 27.51-61.44 61.44-61.44h814.29c33.93 0 61.44 27.51 61.44 61.44v177.060c0.005 33.93-27.505 61.44-61.435 61.44zM212.27 716.8c-25.452 0-46.080 20.628-46.080 46.080s20.628 46.080 46.080 46.080 46.080-20.628 46.080-46.080-20.628-46.080-46.080-46.080zM340.27 716.8c-25.452 0-46.080 20.628-46.080 46.080s20.628 46.080 46.080 46.080 46.080-20.628 46.080-46.080-20.628-46.080-46.080-46.080zM816.43 716.8h-228.091c-25.452 0-46.080 20.628-46.080 46.080s20.628 46.080 46.080 46.080h228.091c25.452 0 46.080-20.628 46.080-46.080s-20.628-46.080-46.080-46.080zM919.148 597.97h-814.295c-33.93 0-61.44-27.51-61.44-61.44v-182.18c0-33.93 27.51-61.44 61.44-61.44h814.29c33.93 0 61.44 27.51 61.44 61.44v182.18c0.005 33.93-27.505 61.44-61.435 61.44zM212.27 395.31c-25.452 0-46.080 20.628-46.080 46.080s20.628 46.080 46.080 46.080 46.080-20.628 46.080-46.080-20.628-46.080-46.080-46.080zM340.27 395.31c-25.452 0-46.080 20.628-46.080 46.080s20.628 46.080 46.080 46.080 46.080-20.628 46.080-46.080-20.628-46.080-46.080-46.080zM816.43 395.31h-228.091c-25.452 0-46.080 20.628-46.080 46.080s20.628 46.080 46.080 46.080h228.091c25.452 0 46.080-20.628 46.080-46.080s-20.628-46.080-46.080-46.080zM919.148 275.441h-814.295c-33.93 0-61.44-27.51-61.44-61.44v-177.060c0-33.93 27.51-61.44 61.44-61.44h814.29c33.93 0 61.44 27.51 61.44 61.44v177.060c0.005 33.93-27.505 61.44-61.435 61.44zM212.27 77.901c-25.452 0-46.080 20.628-46.080 46.080s20.628 46.080 46.080 46.080 46.080-20.628 46.080-46.080-20.628-46.080-46.080-46.080zM340.27 77.901c-25.452 0-46.080 20.628-46.080 46.080s20.628 46.080 46.080 46.080 46.080-20.628 46.080-46.080-20.628-46.080-46.080-46.080zM816.43 77.901h-228.091c-25.452 0-46.080 20.628-46.080 46.080s20.628 46.080 46.080 46.080h228.091c25.452 0 46.080-20.628 46.080-46.080s-20.628-46.080-46.080-46.080z" />
<glyph unicode="&#xe921;" glyph-name="import" d="M487.68 203.52v0c5.697-5.811 13.628-9.413 22.4-9.413s16.703 3.602 22.395 9.407l192.005 192.005c5.815 5.815 9.411 13.847 9.411 22.72 0 17.745-14.386 32.131-32.131 32.131-8.873 0-16.905-3.596-22.72-9.411v0l-135.040-136.32v624c0 17.673-14.327 32-32 32s-32-14.327-32-32v0-624l-138.24 134.4c-5.697 5.811-13.628 9.413-22.4 9.413s-16.703-3.602-22.395-9.407l-0.005-0.005c-5.811-5.697-9.413-13.628-9.413-22.4s3.602-16.703 9.407-22.395l0.005-0.005zM832-32h-640c-88.366 0-160 71.634-160 160v0 448c0 88.366 71.634 160 160 160v0c17.673 0 32-14.327 32-32s-14.327-32-32-32v0c-53.019 0-96-42.981-96-96v0-448c0-53.019 42.981-96 96-96v0h640c53.019 0 96 42.981 96 96v0 448c0 53.019-42.981 96-96 96v0c-17.673 0-32 14.327-32 32s14.327 32 32 32v0c88.366 0 160-71.634 160-160v0-448c0-88.366-71.634-160-160-160v0z" />
<glyph unicode="&#xe922;" glyph-name="info" d="M513.172 22.728l0.348 96.471c25.221-0.384 51.144 2.396 75.884 8.371 48.84 9.119 26.045 32.558-20.188 49.49-31.908 10.675-64.829 72.095-44.933 112.005l85.96 214.241c20.372 44.534 16.353 92.319-18.232 109.399-83.42 37.53-196.009 13.676-196.009 13.676-48.84-5.207-1.956-22.794 44.933-39.071 0 0 92.401-36.91 62.515-115.912l-94.423-229.222c-18.196-37.381-16.492-93.701 20.188-109.399 26.045-9.897 55.834-13.087 84.306-13.583l-0.348-96.466c-233.769 0-423.885 189.507-423.885 423.276 0.358 233.62 189.655 422.917 423.276 423.276l24.75-0.712 0.046-83.287c-31.647 0-57.354-25.661-57.354-57.308s25.656-57.303 57.303-57.303c31.647 0 57.303 25.656 57.303 57.303s-25.605 57.308-57.252 57.308l-0.046 83.287c222.249-12.815 398.531-197.105 398.531-422.564 0-233.528-189.123-422.892-422.559-423.276zM512.563 934.4c-269.732 0-488.397-218.665-488.397-488.397s218.665-488.397 488.397-488.397 488.397 218.665 488.397 488.397-218.665 488.397-488.397 488.397z" />
<glyph unicode="&#xe923;" glyph-name="latlng" d="M910.618 898.56h-729.667l-30.438-58.675 754.995 0.579 4.982-793.441-788.46-0.829-0.082 125.327h663.439l-0.108 62.95-548.306 0.005v-62.956h-115.072l-0.077 121.692 661.699-0.108-0.128 65.229-547.671-0.015 0.005-65.106h-113.905l-0.123 213.192h633.769c32.41 7.956 49.423 27.694 50.908 59.31-0.645 24.294-12.16 42.209-34.54 53.719-14.715 7.675-31.345 13.43-49.879 17.27-61.481 14.817-45.481 49.377-7.68 47.007 23.025 0 36.127-10.552 39.332-31.657l47.007 9.595c-10.86 74.353-155.5 90.993-165.955 1.92 1.495-56.847 34.135-49.167 98.806-72.909 38.369-10.179 26.849-50.499-11.51-51.804-28.15 0-44.134 14.387-47.969 43.167l-47.007-8.632c7.219-36.096 27.121-58.414 59.694-66.985h-196.874v74.66h35.502c56.909 0 85.043 23.337 84.413 70.031-1.915 43.484-28.457 65.864-79.616 67.149h-88.264v-211.84h-87.895c30.377 5.857 51.052 20.178 61.993 43.003v78.664h-106.481v-38.369h62.356v-25.902c-9.595-14.72-26.547-22.067-50.842-22.067-82.893 6.533-72.653 133.253-3.84 138.143 24.945 0 42.527-9.595 52.762-28.78l44.129 16.307c-16.64 35.809-49.254 53.719-97.848 53.719-133.56-13.281-119.91-193.761-22.953-214.717h-171.52l-0.184 333.435 28.995 0.046 30.438 58.675h-59.756c-33.004 0-59.756-26.752-59.756-59.756v-789.422c0-33.004 26.752-59.756 59.756-59.756h789.422c33.004 0 59.756 26.752 59.756 59.756v789.422c0.005 33.004-26.752 59.756-59.756 59.756zM489.805 680.832c39.864 0 79.37 3.651 79.37-32.297 0-34.775-41.8-30.444-79.37-31.017 0 14.802 0 41.001 0 63.314z" />
<glyph unicode="&#xe924;" glyph-name="lc" d="M299.228 810.772c-146.483-129.812-87.071-368.42-143.549-424.899-147.041-147.041-64.020-237.599-114.191-287.77s79.457-171.116 125.286-125.286c39.859 39.859 132.746-10.173 286.469 115.497 63.585 58.46 299.546 13.082 429.368 142.904 338.509 357.581-120.586 963.446-583.383 579.553zM138.711 125.507c-23.511-14.577-62.761 28.943-36.541 52.204 176.87 132.905 71.055 138.025 143.56 367.38 8.571 31.764 64.891 10.429 56.12-18.924-74.010-181.422 48.87-236.032-163.139-400.66zM611.149 183.485c-255.309-75.965-267.73 6.451-371.195-147.374-23.209-25.871-70.139 11.674-49.044 35.236 177.091 190.413 125.676 72.013 400.66 163.789 27.525 9.559 57.815-38.016 19.579-51.651zM752.748 219.474c-168.356 24.796-439.813 304.737-466.565 473.093-2.934 18.785 27.402 56.586 51.579 81.562 1.434 1.485 25.979-74.552 28.559-80.451 0.087 0.087-2.135-27.356 14.172-30.28s192.522 169.452 424.74-17.833c11.832-11.116 28.472-3.011 18.033 31.124-241.29 192.425-456.842 16.645-456.945 16.983-2.156 4.777-26.721 78.802-28.16 80.799 445.199 358.328 850.959-317.512 414.587-554.998z" />
<glyph unicode="&#xe925;" glyph-name="lc_c1" d="M914.826 907.039h-800.031c-32.072 0-58.066-25.999-58.066-58.066v-801.618c0-32.072 25.999-58.066 58.066-58.066h800.026c32.072 0 58.066 25.999 58.066 58.066v801.618c0.005 32.072-25.994 58.066-58.061 58.066zM155.059 212.746c154.030 115.743 61.88 120.202 125.020 319.939 7.465 27.663 56.509 9.083 48.876-16.481-64.451-157.993 42.557-205.553-142.075-348.923-20.475-12.692-54.656 25.206-31.821 45.466zM598.313 217.774c-222.341-66.156-233.16 5.617-323.261-128.343-20.214-22.528-61.082 10.168-42.711 30.684 154.225 165.827 109.445 62.715 348.923 142.638 23.972 8.325 50.35-33.106 17.050-44.979zM721.628 249.114c-146.616 21.596-383.022 265.385-406.318 412.001 286.981 419.973 854.943-136.428 406.318-412.001zM403.594 674.504c-13.476-15.186 6.482-38.538 25.938-26.511 8.212 5.755 147.569 136.346 297.334 1.101 16.568-14.090 39.69 9.999 21.484 27.105-171.249 144.753-312.934 26.010-344.755-1.695z" />
<glyph unicode="&#xe926;" glyph-name="left" d="M714.849 841.4h-632.791c-19.871 0-35.978 16.108-35.978 35.978s16.108 35.978 35.978 35.978h632.791c19.871 0 35.978-16.108 35.978-35.978s-16.108-35.978-35.978-35.978zM786.801 553.58h-704.742c-19.871 0-35.978 16.108-35.978 35.978s16.108 35.978 35.978 35.978h704.748c19.871 0 35.978-16.108 35.978-35.978s-16.113-35.978-35.983-35.978zM714.849 265.759h-632.791c-19.871 0-35.978 16.108-35.978 35.978s16.108 35.978 35.978 35.978h632.791c19.871 0 35.978-16.108 35.978-35.978s-16.108-35.978-35.978-35.978zM930.714-22.062h-848.655c-19.871 0-35.978 16.108-35.978 35.978s16.108 35.978 35.978 35.978h848.655c19.871 0 35.978-16.108 35.978-35.978s-16.108-35.978-35.978-35.978z" />
<glyph unicode="&#xe927;" glyph-name="list" d="M544.548 813.763c5.535-8.074 16.492-14.961 30.73-14.961v-174.94c-42.26 0-43.069-62.254 0-62.254v-219.141c-49.505 0-48.701-62.254 0-62.254v-174.94c-46.285 0-46.285-62.254 0-62.254h373.535c42.947 0 42.947 62.254 0 62.254h-373.535v174.94h373.535c42.143 0 41.738 62.254 0 62.254h-373.535v219.141h373.535c41.334 0 41.738 62.254 0 62.254h-373.535v174.94h373.535c40.735 0 40.735 62.254 0 62.254h-373.535c-31.596 0-41.764-28.636-30.5-47.068l-83.425-0.881c0 57.421-46.546 105.846-103.967 105.846 0 0 0 0 0 0h-207.319c-57.421 0-103.967-46.546-103.967-103.967v-207.314c0-57.421 46.546-103.967 103.967-103.967v0h207.314v-103.347h-207.314l0.082-65.096 207.232 2.836c0 0 41.713 1.423 41.713-41.713s0-207.314 0-207.314 3.374-41.713-41.713-41.713-207.314 0-207.314 0-41.713-2.954-41.713 41.713 0 163.83 0 207.314 41.789 38.804 41.789 38.804l-0.082 65.162c-57.421 0-103.967-46.546-103.967-103.967 0 0 0 0 0 0v-207.314c0-57.421 46.546-103.967 103.967-103.967v0h207.314c57.421 0 103.967 46.546 103.967 103.967v0c0 0 0 195.43 0 207.314 0 98.714-103.967 103.967-103.967 103.967v165.612c0 0-188.452-0.031-207.314-0.031-16.445 0-41.713 13.281-41.713 41.743 0 31.293 0 181.12 0 207.314 0 21.361 18.627 41.713 41.713 41.713 25.81 0 173.327 0 207.314 0 30.362 0 41.713-25.779 41.713-41.713 0-16.666 0-207.314 0-207.314 0-21.622-18.391-41.713-41.713-41.713 0.471-18.734 0.42-62.254 0.486-62.254 57.267 0.179 103.48 46.659 103.48 103.967v0 205.435l83.205 0.65z" />
<glyph unicode="&#xe928;" glyph-name="map" d="M643.922 170.716c0 0 287.165 163.062 287.165 405.77s-214.671 359.823-420.562 359.823-422.769-125.563-422.769-356.859 285.071-409.682 285.071-409.682c-106.701-7.608-303.345-36.46-303.345-104.786 0-72.525 228.813-100.193 441.042-100.193s441.042 32.788 440.218 105.313c-0.010 69.018-200.888 93.829-306.821 100.613zM323.497 582.354c0 252.206 375.706 245.381 375.706-0.927 0-248.627-375.706-248.627-375.706 0.927zM510.52 3.891c-659.988 21.929-298.578 128.594-95.565 126.019 0 0 81.531-75.571 93.076-75.571s93.097 75.684 93.097 75.684c219.658 6.728 551.291-100.792-90.609-126.131z" />
<glyph unicode="&#xe929;" glyph-name="mediaPublish_cycle" d="M520.607-18.883h-383.293c-51.799 0-93.793 41.994-93.793 93.793v687.811c0 51.799 41.994 93.793 93.793 93.793h750.336c51.799 0 93.793-41.994 93.793-93.793v-312.637c0-17.265-13.998-31.263-31.263-31.263s-31.263 13.998-31.263 31.263v312.637c0 17.265-13.998 31.263-31.263 31.263h-750.341c-17.265 0-31.263-13.998-31.263-31.263v-687.805c0-17.265 13.998-31.263 31.263-31.263h383.299c17.265 0 31.263-13.998 31.263-31.263 0-17.275-13.998-31.273-31.268-31.273zM324.895 481.341h-62.525c-17.265 0-31.263 13.998-31.263 31.263s13.998 31.263 31.263 31.263h62.531c17.265 0 31.263-13.998 31.263-31.263s-13.998-31.263-31.268-31.263zM512.481 481.341h-62.531c-17.265 0-31.263 13.998-31.263 31.263s13.998 31.263 31.263 31.263h62.531c17.265 0 31.263-13.998 31.263-31.263s-13.998-31.263-31.263-31.263zM324.895 356.291h-62.525c-17.265 0-31.263 13.998-31.263 31.263s13.998 31.263 31.263 31.263h62.531c17.265 0 31.263-13.998 31.263-31.263-0.005-17.27-13.998-31.263-31.268-31.263zM512.481 356.291h-62.531c-17.265 0-31.263 13.998-31.263 31.263s13.998 31.263 31.263 31.263h62.531c17.265 0 31.263-13.998 31.263-31.263 0-17.27-13.998-31.263-31.263-31.263zM762.593 481.341h-125.056c-17.265 0-31.263 13.998-31.263 31.263s13.998 31.263 31.263 31.263h125.056c17.265 0 31.263-13.998 31.263-31.263s-13.998-31.263-31.263-31.263zM762.593 356.291c86.333 0 156.319-69.985 156.319-156.319s-69.985-156.319-156.319-156.319-156.319 69.985-156.319 156.319 69.985 156.319 156.319 156.319zM762.593 418.816c-120.868 0-218.849-97.981-218.849-218.849s97.981-218.849 218.849-218.849 218.849 97.981 218.849 218.849-97.987 218.849-218.849 218.849zM830.121 120.556h-88.166c-17.265 0-31.263 13.998-31.263 31.263v135.060c0 17.265 13.998 31.263 31.263 31.263s31.263-13.998 31.263-31.263v-103.798h56.899c17.265 0 31.263-13.998 31.263-31.263s-13.988-31.263-31.258-31.263zM324.895 606.403h-62.525c-17.265 0-31.263 13.998-31.263 31.263s13.998 31.263 31.263 31.263h62.531c17.265 0 31.263-13.998 31.263-31.263-0.005-17.27-13.998-31.263-31.268-31.263zM512.481 606.403h-62.531c-17.265 0-31.263 13.998-31.263 31.263s13.998 31.263 31.263 31.263h62.531c17.265 0 31.263-13.998 31.263-31.263 0-17.27-13.998-31.263-31.263-31.263zM762.593 606.403h-125.056c-17.265 0-31.263 13.998-31.263 31.263s13.998 31.263 31.263 31.263h125.056c17.265 0 31.263-13.998 31.263-31.263 0-17.27-13.998-31.263-31.263-31.263zM324.895 231.235h-62.525c-17.265 0-31.263 13.998-31.263 31.263s13.998 31.263 31.263 31.263h62.531c17.265 0 31.263-13.998 31.263-31.263-0.005-17.27-13.998-31.263-31.268-31.263zM324.895 106.179h-62.525c-17.265 0-31.263 13.998-31.263 31.263s13.998 31.263 31.263 31.263h62.531c17.265 0 31.263-13.998 31.263-31.263s-13.998-31.263-31.268-31.263zM668.8 762.721v125.056c0 17.265 13.998 31.263 31.263 31.263s31.263-13.998 31.263-31.263v-125.056c0-17.265-13.998-31.263-31.263-31.263-17.265-0.005-31.263 13.993-31.263 31.263zM293.632 762.721v125.056c0 17.265 13.998 31.263 31.263 31.263s31.263-13.998 31.263-31.263v-125.056c0-17.265-13.998-31.263-31.263-31.263-17.265-0.005-31.263 13.993-31.263 31.263z" />
<glyph unicode="&#xe92a;" glyph-name="mediaPublish_general" d="M878.904-10.634h-733.809c-50.657 0-91.725 41.068-91.725 91.725v733.814c0 50.657 41.068 91.725 91.725 91.725h733.814c50.657 0 91.725-41.068 91.725-91.725v-733.814c0-50.657-41.068-91.725-91.73-91.725zM145.096 845.481c-16.886 0-30.577-13.691-30.577-30.577v-733.814c0-16.886 13.691-30.577 30.577-30.577h733.814c16.886 0 30.577 13.691 30.577 30.577v733.814c0 16.886-13.691 30.577-30.577 30.577h-733.814zM756.603 662.031h-489.206c-16.886 0-30.577 13.691-30.577 30.577s13.691 30.577 30.577 30.577h489.211c16.886 0 30.577-13.691 30.577-30.577-0.005-16.891-13.696-30.577-30.582-30.577zM756.603 498.755h-489.206c-16.886 0-30.577 13.691-30.577 30.577s13.691 30.577 30.577 30.577h489.211c16.886 0 30.577-13.691 30.577-30.577-0.005-16.886-13.696-30.577-30.582-30.577zM756.603 336.092h-489.206c-16.886 0-30.577 13.691-30.577 30.577s13.691 30.577 30.577 30.577h489.211c16.886 0 30.577-13.691 30.577-30.577s-13.696-30.577-30.582-30.577zM756.603 172.82h-489.206c-16.886 0-30.577 13.691-30.577 30.577s13.691 30.577 30.577 30.577h489.211c16.886 0 30.577-13.691 30.577-30.577s-13.696-30.577-30.582-30.577z" />
<glyph unicode="&#xe92b;" glyph-name="mediaPublish_regular" d="M677.811 269.204h-230.84c-17.705 0-32.061 13.906-32.061 31.063v341.714c0 17.157 14.356 31.063 32.061 31.063s32.061-13.906 32.061-31.063v-310.651h198.779c17.705 0 32.061-13.906 32.061-31.063s-14.351-31.063-32.061-31.063zM512.379-22.185c-258.161-1.428-468.639 200.192-470.113 450.335-1.265 214.753 153.298 400.85 370.079 445.578 17.705 3.604 35.077-7.383 38.794-24.54s-7.624-33.987-25.329-37.591c-217.964-46.147-356.050-254.756-308.429-465.951s262.927-344.991 480.891-298.844 356.050 254.756 308.429 465.951c-22.451 99.564-84.091 186.711-171.822 242.929-15.606 8.11-21.468 26.941-13.097 42.061s27.807 20.803 43.407 12.692c1.751-0.911 3.41-1.976 4.956-3.185 214.61-139.044 272.256-420.326 128.753-628.27-86.339-125.117-231.183-200.504-386.519-201.165zM429.66 776.806h-6.41c-4.106 2.294-6.574 6.595-6.41 11.182v109.348c-1.075 4.634 0.666 9.457 4.49 12.426 3.968 2.222 8.858 2.222 12.826 0l96.824-55.916c6.195-3.323 8.443-10.885 5.012-16.891-1.167-2.043-2.903-3.727-5.012-4.859l-96.829-54.052-4.49-1.239z" />
<glyph unicode="&#xe92c;" glyph-name="middle" d="M901.453 128.128v642.514c0 20.173 15.852 36.531 35.405 36.531s35.405-16.353 35.405-36.531v-642.514c0-20.173-15.852-36.531-35.405-36.531s-35.405 16.358-35.405 36.531zM618.214 91.597v715.576c0 20.173 15.852 36.531 35.405 36.531s35.405-16.353 35.405-36.531v-715.576c0-20.173-15.852-36.531-35.405-36.531s-35.405 16.358-35.405 36.531zM334.976 128.128v642.514c0 20.173 15.852 36.531 35.405 36.531s35.405-16.353 35.405-36.531v-642.514c0-20.173-15.852-36.531-35.405-36.531s-35.405 16.358-35.405 36.531zM51.738 18.534v861.696c0 20.173 15.852 36.531 35.405 36.531s35.405-16.353 35.405-36.531v-861.696c0-20.173-15.852-36.531-35.405-36.531s-35.405 16.358-35.405 36.531z" />
<glyph unicode="&#xe92d;" glyph-name="module" d="M867.052 463.867h-238.136l4.931-69.181c0 0 186.634 0 228.28 0s37.693-38.41 37.693-38.41v-258.934c0 0 2.212-38.41-37.693-38.41s-228.28 0-228.28 0-37.693-1.014-37.693 38.41 0 219.223 0 258.934 37.693 38.41 37.693 38.41l-4.931 69.181c-54.61 0-98.888-45.117-98.888-100.782l-51.932-97.51c0 55.66-44.273 100.782-98.888 100.782v0h-223.073l6.139-67.384c0 0 169.375 0 210.801 0s37.494-38.211 37.494-38.211v-165.422c0 0 2.202-38.211-37.494-38.211s-210.801 0-210.801 0-37.494-1.009-37.494 38.211 0 125.921 0 165.422 37.494 38.211 37.494 38.211l-6.139 67.379c-54.61 0-98.888-45.123-98.888-100.782v-175.048c0-55.654 44.273-100.782 98.888-100.782v0h223.073c54.61 0 98.888 45.117 98.888 100.782v0 175.048l51.922 97.51v-272.563c0-55.654 44.273-100.782 98.888-100.782v0h238.136c54.615 0 98.888 45.117 98.888 100.782v0 272.563c0.005 55.675-44.268 100.787-98.877 100.787v0 60.564c54.61 0 98.888 45.123 98.888 100.782v0 173.517c0 55.654-44.273 100.782-98.888 100.782v0h-238.136l4.931-66.708c0 0 186.634 0 228.28 0s37.693-38.41 37.693-38.41v-164.849c0 0 2.212-38.41-37.693-38.41s-228.28 0-228.28 0-37.693-1.014-37.693 38.41 0 125.138 0 164.849 37.693 38.41 37.693 38.41l-4.931 66.708c-54.61 0-98.888-45.123-98.888-100.782v-173.522l-55.398-94.505v268.027c0 55.654-44.273 100.782-98.888 100.782h-219.607l6.042-69.939c0 0 166.103 0 207.529 0s37.494-38.211 37.494-38.211v-253.251c0 0 2.202-38.211-37.494-38.211s-207.529 0-207.529 0-37.494-1.009-37.494 38.211 0 213.75 0 253.251 37.494 38.211 37.494 38.211l-6.042 69.939c-54.61 0-98.888-45.123-98.888-100.782v-267.991c0-55.66 44.273-100.782 98.888-100.782v0h219.607c54.61 0 98.883 45.082 98.883 100.741l55.388 94.505c0-55.66 44.273-100.782 98.888-100.782v0h238.136l0.015-60.554z" />
<glyph unicode="&#xe92e;" glyph-name="password" d="M514.56 942.080c-259.405 0-471.854-200.955-490.214-455.68h103.956c19.292 196.874 185.272 350.72 387.22 350.72 214.907 0 389.12-174.213 389.12-389.12s-174.213-389.12-389.12-389.12c-83.763 0-162.749 27.597-226.217 72.632 10.88 15.862 37.176 57.288 38.835 57.288 9.62-0.799 23.209 15.155 40.274 32.22 9.59 1.413 58.25 15.78 80.584 23.194 5.402 22.876 16.087 73.477 16.087 73.477l76.529 76.529c60.416-26.179 132.915-12.083 181.253 34.237 164.818 164.818-71.537 395.684-233.61 233.61-48.333-48.333-60.416-118.82-34.237-181.253l-199.378-199.373c-9.774-9.226-4.029-24.172 0-28.196l70.6-63.805c1.577-1.577-26.808-41.528-36.936-57.928-86.083 61.691-146.007 157.573-159.77 267.848h-103.849c25.605-247.398 234.706-440.32 488.873-440.32 271.457 0 491.52 220.063 491.52 491.52s-220.063 491.52-491.52 491.52zM612.101 601.651c68.859 0 68.434-100.69 0-100.69-68.526 0-66.396 100.69 0 100.69zM316.058 259.287l-14.095 14.095 140.974 140.974 14.095-14.095-140.974-140.974z" />
<glyph unicode="&#xe92f;" glyph-name="play" d="M296.945 677.284c-8.955-5.606-14.356-15.462-14.254-26.030v-405.33c-0.072-16.773 13.46-30.428 30.234-30.505 4.782-0.020 9.498 1.085 13.768 3.231l404.086 202.665c15.063 7.383 21.284 25.574 13.906 40.632-2.964 6.047-7.854 10.941-13.906 13.906l-405.32 202.67c-9.119 4.357-19.804 3.891-28.513-1.239zM343.429 602.291l304.927-153.702-306.166-153.702 1.239 307.405zM948.321 823.552h-232.412c-17.116 0-30.986-13.875-30.986-30.986 0-17.116 13.875-30.986 30.986-30.986h200.806v-627.205h-805.699v627.2h483.415c17.116 0 30.986 13.875 30.986 30.986 0 17.116-13.875 30.986-30.986 30.986h-515.026c-16.773 0-30.367-13.599-30.367-30.367v-689.802c0-16.773 13.599-30.367 30.367-30.367h867.676c16.773 0 30.367 13.599 30.367 30.367v689.802c0.015 16.302-12.841 29.706-29.128 30.372z" />
<glyph unicode="&#xe930;" glyph-name="pole" d="M455.229 609.336c-15.724 8.535-35.451 3.589-45.251-11.505l-44.14-64.916c-29.199-39.465 35.599-69.222 57.124-35.052l44.14 64.916c10.127 13.916 3.574 38.748-11.873 46.556 0 0 9.708 27.576 9.846 27.54 50.857-13.624 103.962-16.906 154.778-10.737 0 0 4.705-30.336 5.642-39.342 0 0-33.106-1.039-33.106-33.106v-81.792c0-49.116 64.911-50.396 64.911 0v81.792c-0.312 17.659-14.177 32.092-31.805 33.106-0.2-0.005-5.642 39.342-5.642 39.342 50.668 6.282 95.186 17.101 140.262 41.743 0 0 20.311-24.934 26.675-32.225-18.55-11.566-19.722-30.72-11.018-45.251 2.135-2.79 56.796-69.181 56.796-69.181 29.512-34.657 85.192 4.598 50.632 41.544l-50.632 61.67c-9.4 15.683-30.095 20.613-45.778 11.218-0.497-0.297-26.675 32.225-26.675 32.225 187.085 109.251 193.485 340.931-60.544 275.574l-466.58-178.509v94.126c0 56.294-76.6 55.014-76.6 0v-843.884c0-58.542 76.6-57.262 76.6 0v663.27c341.576 134.405 340.956 141.276 482.104 193.28 86.502 27.628 121.062-28.37 87.040-77.655-83.63-109.225-221.988-127.007-336.983-88.494-48.727 14.792-70.139-49.736-0.077-68.716 0.148-0.046-9.846-27.54-9.846-27.54z" />
<glyph unicode="&#xe931;" glyph-name="pole_c1" d="M914.826 907.039h-800.031c-32.072 0-58.066-25.999-58.066-58.066v-801.618c0-32.072 25.999-58.066 58.066-58.066h800.026c32.072 0 58.066 25.999 58.066 58.066v801.618c0.005 32.072-25.994 58.066-58.061 58.066zM715.039 574.51c11.981 7.178 27.791 3.41 34.975-8.571l38.682-47.119c26.404-28.227-16.138-58.22-38.682-31.739 0 0-41.764 50.724-43.392 52.854-6.651 11.105-5.755 25.738 8.417 34.575 0 0 0 0 0 0-0.389-0.215-20.383 24.622-20.383 24.622-34.437-18.826-68.449-27.095-107.162-31.892 0 0 3.594-23.178 4.311-30.060 13.466-0.773 24.059-11.802 24.3-25.293v-62.49c0-38.502-49.592-37.524-49.592 0v62.49c0 24.499 25.293 25.293 25.293 25.293-0.154-0.005-4.311 30.060-4.311 30.060-38.825-4.716-79.396-2.207-118.252 8.202 0.113-0.036-7.521-21.043-7.521-21.043 11.802-5.965 16.809-24.94 9.073-35.569l-33.725-49.597c-16.445-26.107-65.951-3.374-43.643 26.778l33.72 49.597c7.485 11.53 22.559 15.309 34.57 8.791 0 0 7.419 21.069 7.521 21.043-53.53 14.5-37.171 63.8 0.056 52.5 87.859-29.425 193.567-15.841 257.459 67.61 25.994 37.652-0.41 80.435-66.499 59.331-107.837-39.731-107.366-44.979-368.333-147.666v-506.747c0-43.75-58.522-44.728-58.522 0v644.731c0 42.030 58.522 43.008 58.522 0v-71.916l356.47 136.381c194.079 49.935 189.189-127.073 46.254-210.54 0.015 0 15.529-19.046 20.393-24.617v0z" />
<glyph unicode="&#xe932;" glyph-name="reduce" d="M512.579 856.054c225.807 0 408.858-183.050 408.858-408.858s-183.050-408.858-408.858-408.858-408.858 183.050-408.858 408.858c0.348 225.664 183.194 408.515 408.858 408.858zM512.579 918.958c-260.547 0-471.757-211.21-471.757-471.757s211.21-471.757 471.757-471.757 471.757 211.215 471.757 471.757-211.215 471.757-471.757 471.757zM752.707 409.953h-481.838c-41.211 0-41.211 60.232 0 60.232h481.838c44.375-0.005 44.375-60.232 0-60.232z" />
<glyph unicode="&#xe933;" glyph-name="rename" d="M1024 51.371c0-63.717-51.653-115.371-115.371-115.371v0h-793.259c-63.717 0-115.371 51.653-115.371 115.371v0 793.259c0 63.717 51.653 115.371 115.371 115.371v0h793.259c63.717 0 115.371-51.653 115.371-115.371v0zM128.341 895.829c-1.051 0.065-2.279 0.102-3.515 0.102-33.555 0-60.757-27.202-60.757-60.757 0-1.237 0.037-2.465 0.11-3.683l-0.008 0.168v-768c-0.028-0.703-0.045-1.528-0.045-2.357 0-34.309 27.813-62.123 62.123-62.123 2.18 0 4.333 0.112 6.455 0.331l-0.266-0.022h763.904c38.229 0 64.171 19.115 64.171 57.344v774.827c0.065 1.051 0.102 2.279 0.102 3.515 0 33.555-27.202 60.757-60.757 60.757-1.237 0-2.465-0.037-3.683-0.11l0.168 0.008zM256 639.829h191.829v-64.171h-191.829v64.171zM256 383.829h191.829v-64.171h-191.829v64.171zM576.171 351.744c0-17.72-14.365-32.085-32.085-32.085s-32.085 14.365-32.085 32.085c0 17.72 14.365 32.085 32.085 32.085s32.085-14.365 32.085-32.085zM703.829 351.744c0-17.72-14.365-32.085-32.085-32.085s-32.085 14.365-32.085 32.085c0 17.72 14.365 32.085 32.085 32.085s32.085-14.365 32.085-32.085zM832.171 351.744c0-17.72-14.365-32.085-32.085-32.085s-32.085 14.365-32.085 32.085c0 17.72 14.365 32.085 32.085 32.085s32.085-14.365 32.085-32.085zM320.171 639.829h64.171v-320.171h-64.171v320.171z" />
<glyph unicode="&#xe934;" glyph-name="replace" horiz-adv-x="1004" d="M201.387-64c-0.417-0.020-0.906-0.032-1.397-0.032-16.966 0-30.72 13.754-30.72 30.72 0 0.491 0.012 0.98 0.034 1.466l-0.003-0.069v163.84l-159.744 157.013c-6.057 5.627-9.834 13.636-9.834 22.528s3.778 16.901 9.815 22.51l0.019 0.018c5.413 6.659 13.409 11.038 22.438 11.601l0.090 0.004c8.838-0.009 16.819-3.667 22.52-9.549l144.051-144.051 146.773 144.725c5.713 5.878 13.695 9.525 22.528 9.525s16.815-3.647 22.521-9.518l0.007-0.007c5.878-5.713 9.525-13.695 9.525-22.528s-3.647-16.815-9.518-22.521l-159.068-159.068v-164.523c0.020-0.41 0.031-0.89 0.031-1.372 0-16.737-13.385-30.348-30.034-30.712l-0.034-0.001zM614.4-64c-8.823 0.091-16.779 3.729-22.524 9.554l-0.004 0.004-117.419 118.784c-1.207 1.23-1.951 2.918-1.951 4.779s0.745 3.548 1.953 4.78l118.783 118.783c5.713 5.878 13.695 9.525 22.528 9.525s16.815-3.647 22.521-9.518l0.007-0.007c5.878-5.713 9.525-13.695 9.525-22.528s-3.647-16.815-9.518-22.521l-46.428-46.428h79.189c121.624 0.387 220.115 98.878 220.501 220.465v151.589c0 17.72 14.365 32.085 32.085 32.085s32.085-14.365 32.085-32.085v0-151.552c0-157.22-127.452-284.672-284.672-284.672v0h-79.872l46.421-46.421c5.878-5.713 9.525-13.695 9.525-22.528s-3.647-16.815-9.518-22.521l-0.007-0.007c-5.822-5.903-13.908-9.559-22.848-9.559-0.127 0-0.255 0.001-0.382 0.002h0.019zM110.592 390.656c-0.417-0.020-0.906-0.032-1.397-0.032-16.966 0-30.72 13.754-30.72 30.72 0 0.491 0.012 0.98 0.034 1.466l-0.003-0.069v151.552c0 157.22 127.452 284.672 284.672 284.672v0h99.669l-46.421 46.421c-5.878 5.713-9.525 13.695-9.525 22.528s3.647 16.815 9.518 22.521l0.007 0.007c5.713 5.878 13.695 9.525 22.528 9.525s16.815-3.647 22.521-9.518l118.791-118.791c0.852-1.127 1.365-2.551 1.365-4.096s-0.513-2.969-1.378-4.113l0.012 0.017-118.784-120.149c-5.713-5.878-13.695-9.525-22.528-9.525s-16.815 3.647-22.521 9.518l-0.007 0.007c-5.878 5.713-9.525 13.695-9.525 22.528s3.647 16.815 9.518 22.521l46.428 46.428h-99.669c0 0-0.001 0-0.001 0-121.916 0-220.795-98.639-221.183-220.464v-151.589c0.020-0.41 0.031-0.89 0.031-1.374 0-16.966-13.754-30.72-30.72-30.72-0.251 0-0.501 0.003-0.75 0.009l0.037-0.001zM972.117 602.965c-8.838 0.009-16.819 3.667-22.52 9.549l-0.008 0.008-119.467 118.784-118.784-118.784c-5.765-5.765-13.73-9.331-22.528-9.331-17.595 0-31.859 14.264-31.859 31.859 0 8.798 3.566 16.763 9.331 22.528l118.784 118.784-118.784 119.467c-5.733 5.553-9.354 13.257-9.557 21.808l-0.001 0.038c0.009 8.838 3.667 16.819 9.549 22.52l0.008 0.008c5.713 5.878 13.695 9.525 22.528 9.525s16.815-3.647 22.521-9.518l0.007-0.007 118.784-116.736 119.467 116.736c5.627 6.057 13.636 9.834 22.528 9.834s16.901-3.778 22.51-9.815l0.018-0.019c5.89-5.709 9.548-13.69 9.557-22.526v-0.002c-0.009-8.838-3.667-16.819-9.549-22.52l-0.008-0.008-119.467-118.784 118.784-118.784c5.712-5.79 9.24-13.748 9.24-22.53 0-17.609-14.185-31.905-31.752-32.084h-0.017z" />
<glyph unicode="&#xe935;" glyph-name="right" d="M935.557 841.4h-632.791c-19.871 0-35.978 16.108-35.978 35.978s16.108 35.978 35.978 35.978h632.791c19.871 0 35.978-16.108 35.978-35.978s-16.108-35.978-35.978-35.978zM935.557 553.58h-704.742c-19.871 0-35.978 16.108-35.978 35.978s16.108 35.978 35.978 35.978h704.748c19.871 0 35.978-16.108 35.978-35.978s-16.113-35.978-35.983-35.978zM935.557 265.759h-632.791c-19.871 0-35.978 16.108-35.978 35.978s16.108 35.978 35.978 35.978h632.791c19.871 0 35.978-16.108 35.978-35.978s-16.108-35.978-35.978-35.978zM935.557-22.062h-848.655c-19.871 0-35.978 16.108-35.978 35.978s16.108 35.978 35.978 35.978h848.655c19.871 0 35.978-16.108 35.978-35.978s-16.108-35.978-35.978-35.978z" />
<glyph unicode="&#xe936;" glyph-name="save" d="M853.048 855.378h-806.113v-806.113h930.135v688.297l-124.022 117.816zM370.621 816.312h363.991v-275.318h-363.991v275.318zM208.778 816.312h124.017v-275.318h-124.017v275.318zM936.76 91.428h-849.521v724.884h83.712v-295.163c-0.005-10.957 8.873-19.845 19.835-19.85 0.21 0 0.42 0.005 0.63 0.010h566.139c10.952-0.343 20.111 8.259 20.454 19.215 0.005 0.21 0.010 0.42 0.010 0.63v295.158h62.008l97.352-94.874-0.62-630.011zM633.539 776.627c-10.952 0.343-20.111-8.259-20.454-19.215-0.005-0.21-0.010-0.42-0.010-0.63v-156.882c1.961-11.131 12.57-18.565 23.7-16.604 8.474 1.495 15.109 8.131 16.604 16.604v157.501c-0.333 10.716-9.119 19.231-19.84 19.226zM127.544 150.339c-10.952-0.343-19.553-9.498-19.215-20.454 0.343-10.952 9.498-19.553 20.454-19.215 10.711 0.333 19.215 9.108 19.22 19.825 0.005 10.957-8.873 19.845-19.835 19.85-0.205 0.005-0.415 0-0.625-0.005zM774.298 226.606h-525.215c-10.788 1.93-21.1-5.253-23.025-16.041-1.93-10.788 5.253-21.1 16.041-23.025 2.309-0.415 4.675-0.415 6.989 0h525.834c10.788-1.93 21.1 5.253 23.025 16.041 1.93 10.788-5.253 21.1-16.041 23.025-2.309 0.415-4.675 0.415-6.989 0h-0.62zM774.298 344.422h-525.215c-10.788 1.93-21.1-5.253-23.025-16.041-1.93-10.788 5.253-21.1 16.041-23.025 2.309-0.415 4.675-0.415 6.989 0h525.834c10.788-1.93 21.1 5.253 23.025 16.041 1.93 10.788-5.253 21.1-16.041 23.025-2.309 0.415-4.675 0.415-6.989 0h-0.62z" />
<glyph unicode="&#xe937;" glyph-name="scene" d="M854.318 399.283h-196.577v-59.034c0 0 152.873 0 196.577 0s39.552-39.552 39.552-39.552v-196.577c0 0 2.324-39.552-39.552-39.552s-196.577 0-196.577 0-39.552-1.044-39.552 39.552 0 155.689 0 196.577c0 40.888 39.552 39.552 39.552 39.552v59.034c-54.446 0-98.586-44.14-98.586-98.586h-97.997c0 54.446-44.14 98.586-98.586 98.586 0 0 0 0 0 0h-196.577v-59.034c0 0 152.873 0 196.577 0s39.552-39.552 39.552-39.552v-196.577c0 0 2.324-39.552-39.552-39.552s-196.577 0-196.577 0-39.552-1.044-39.552 39.552 0 155.689 0 196.577c0 40.888 39.552 39.552 39.552 39.552v59.034c-54.446 0-98.586-44.14-98.586-98.586v-196.577c0-54.446 44.14-98.586 98.586-98.586v0h196.577c54.446 0 98.586 44.14 98.586 98.586v0 196.577h97.992v-196.577c0-54.446 44.14-98.586 98.586-98.586v0h196.577c54.446 0 98.586 44.14 98.586 98.586v0 196.577c0 54.451-44.134 98.586-98.58 98.586 0 0 0 0 0 0v97.997c54.446 0 98.586 44.14 98.586 98.586v0 196.577c0 54.446-44.14 98.586-98.586 98.586 0 0 0 0 0 0h-196.577v-59.034c0 0 152.873 0 196.577 0s39.552-39.552 39.552-39.552v-196.577c0 0 2.324-39.552-39.552-39.552s-196.577 0-196.577 0-39.552-1.044-39.552 39.552 0 155.689 0 196.577 39.552 39.552 39.552 39.552v59.034c-54.446 0-98.586-44.14-98.586-98.586v-196.577l-97.997-0.036v196.613c0 54.446-44.14 98.586-98.586 98.586 0 0 0 0 0 0h-196.577v-59.034c0 0 152.873 0 196.577 0s39.552-39.552 39.552-39.552v-196.577c0 0 2.324-39.552-39.552-39.552s-196.577 0-196.577 0-39.552-1.044-39.552 39.552 0 155.689 0 196.577 39.552 39.552 39.552 39.552v59.034c-54.446 0-98.586-44.14-98.586-98.586v-196.577c0-54.446 44.14-98.586 98.586-98.586v0h196.577c54.446 0 98.58 44.104 98.58 98.55l97.997 0.036c0-54.446 44.14-98.586 98.586-98.586v0h196.577v-97.997z" />
<glyph unicode="&#xe938;" glyph-name="screen" d="M821.76 936.96h-616.105c-33.93 0-61.44-27.51-61.44-61.44v-855.040c0-33.93 27.51-61.44 61.44-61.44h616.105c33.93 0 61.44 27.51 61.44 61.44v855.040c0 33.93-27.51 61.44-61.44 61.44zM821.76 87.040c0-33.93-27.51-61.44-61.44-61.44h-493.225c-33.93 0-61.44 27.51-61.44 61.44v718.505c0 33.93 27.51 61.44 61.44 61.44h492.37c0 0-79.15-135.357-86.989-145.388 11.346 14.771-4.961 59.843-47.058 28.477-18.57-18.57-141.491-173.824-214.968-252.585-36.69-41.81 11.31-73.17 35.599-48.901 20.71 23.757 172.759 208.932 172.759 208.932l0.23-150.963c0 0-222.060-259.564-246.559-290.243s17.92-64 49.28-32.64c11.269 13.763 239.396 281.068 250.148 294.559 20.357 27.361-7.803 68.746-52.541 28.529 0 2.514-0.404 151.311-0.404 151.311s41.277 48.159 53.519 62.961c13.829 19.835 87.839 145.951 87.839 145.951 33.93 0 61.44-27.51 61.44-61.44v-718.505z" />
<glyph unicode="&#xe939;" glyph-name="screen_c1" d="M914.826 907.039h-800.031c-32.072 0-58.066-25.999-58.066-58.066v-801.618c0-32.072 25.999-58.066 58.066-58.066h800.026c32.072 0 58.066 25.999 58.066 58.066v801.618c0.005 32.072-25.994 58.066-58.061 58.066zM684.851 459.192l-288.589-288.589c-14.218-14.218-37.274-14.218-51.492 0s-14.218 37.274 0 51.492l288.589 288.589c14.218 14.218 37.274 14.218 51.492 0s14.218-37.274 0-51.492zM684.851 672.527l-288.589-288.589c-14.218-14.218-37.274-14.218-51.492 0s-14.218 37.274 0 51.492l288.589 288.589c14.218 14.218 37.274 14.218 51.492 0s14.218-37.274 0-51.492z" />
<glyph unicode="&#xe93a;" glyph-name="select" d="M795.366 592.763c-1.106 19.574-6.564 31.191-19.912 44.539-27.069 27.069-68.362 7.357-78.746-3.2l-261.089-266.803-113.075 114.345c-21.233 21.929-56.223 22.492-78.147 1.26-0.425-0.415-0.845-0.829-1.26-1.26-21.791-22.231-21.791-57.81 0-80.041l154.368-154.368c21.233-21.929 56.223-22.492 78.147-1.26 0.425 0.415 303.002 308.081 303.002 308.081 10.598 10.808 16.532 24.392 16.722 38.605l129.51 52.623c0.010-143.606 0.031-430.751 0.031-483.149 0-76.698-74.092-127.048-127.048-127.048s-483.82 0-571.725 0-127.048 85.299-127.048 127.048c0 41.754 0 515.835 0 571.725s43.146 127.048 127.048 127.048c87.373 0 567.588 0 567.588 0s131.185 0.108 131.185-154.097c4.685 1.679 63.524 24.084 63.524 24.084 0 105.252-85.325 193.536-190.577 193.536h-571.73c-105.252 0-190.577-85.325-190.577-190.577v-571.725c0-105.252 85.325-190.577 190.577-190.577h571.725c105.252 0 190.577 85.325 190.577 190.577v568.663l-63.565-24.166c0 0 0.005 4.644 0.010-61.215l-129.516-52.649z" />
<glyph unicode="&#xe93b;" glyph-name="send" d="M968.402 441.108v0 0 0 0 0 0 0 0 0 0 0h-3.692l-821.847 463.831c-7.112 4.598-16.261 4.598-23.378 0-6.733-5.197-9.651-13.952-7.383-22.144l83.046-292.198-142.715-131.036h-6.769c-0.159-1.434-0.159-2.877 0-4.306-0.154-1.434-0.154-2.872 0-4.306-1.5-4.388-1.5-9.149 0-13.532v0 0 0 0 0 0 0 0 0l149.484-139.643-83.046-287.892c-2.273-8.197 0.645-16.952 7.383-22.144 7.112-4.598 16.261-4.598 23.378 0l814.469 437.99 11.069 15.38zM219.756 422.651c11.551-0.010 20.92 9.349 20.931 20.9s-9.349 20.92-20.9 20.931c-0.010 0-0.020 0-0.031 0h-99.041l105.19 96.579 501.356-95.964h-421.381c-11.551 0.010-20.92-9.349-20.931-20.9s9.349-20.92 20.9-20.931c0.010 0 0.020 0 0.031 0h420.767l-500.741-96.579-105.19 96.584h98.427l0.614-0.62zM817.69 489.708l-581.939 111.959-67.052 241.756 648.991-353.715zM235.75 286.085l581.325 111.345-648.376-353.715 68.9 239.913-1.848 2.458z" />
<glyph unicode="&#xe93c;" glyph-name="sensor" d="M512 947.589c-275.922 0-499.589-223.718-499.589-499.589 0-275.922 223.667-499.589 499.589-499.589 275.948 0 499.589 223.667 499.589 499.589 0 275.871-223.642 499.589-499.589 499.589zM512 19.471c-572.585 0-570.88 857.032 0 857.032 573.44 0 578.56-857.032 0-857.032zM688.384 678.313l-246.692-76.196c-144.732-44.892-175.452-212.997-71.839-304.584 92.652-78.228 244.547-62.013 286.095 85.842l76.14 251.177c8.392 32.968-12.088 54.088-43.704 43.761zM418.012 434.35c0 91.090 140.278 94.29 140.278 0 0-96.43-140.278-94.725-140.278 0z" />
<glyph unicode="&#xe93d;" glyph-name="sensor_c1" d="M914.826 907.039h-800.031c-32.072 0-58.066-25.999-58.066-58.066v-801.618c0-32.072 25.999-58.066 58.066-58.066h800.026c32.072 0 58.066 25.999 58.066 58.066v801.618c0.005 32.072-25.994 58.066-58.061 58.066zM770.135 662.098l-90.788-299.51c-49.546-176.307-230.666-195.64-341.146-102.359-123.551 109.21-86.922 309.663 85.663 363.192l294.159 90.86c37.699 12.314 62.121-12.872 52.111-52.183zM395.628 423.373c0-112.952 167.27-114.985 167.27 0 0 112.435-167.27 108.616-167.27 0z" />
<glyph unicode="&#xe93e;" glyph-name="status" d="M979.354 779.213c0 73.533-59.612 133.146-133.146 133.146 0 0 0 0 0 0h-666.982c-73.533 0-133.146-59.612-133.146-133.146 0 0 0 0 0 0v-666.982c0-73.533 59.612-133.146 133.146-133.146v0h666.977c73.533 0 133.146 59.612 133.146 133.146 0 0 0 0 0 0v666.982zM179.85 845.164h666.358c36.767 0 66.575-29.804 66.575-66.575v-301.757h-52.884l-57.242 57.242c-13.215 13.025-38.067 27.423-55.373-13.066l-41.062-124.436-97.060 197.233c-7.009 17.183-42.542 43.638-62.218 0l-95.821-245.14-106.394 373.309c-5.043 17.859-39.235 40.054-62.218 6.221l-124.436-248.873h-45.42v299.894c0 43.827 35.825 65.951 67.195 65.951zM846.828 45.66h-666.977c-36.767-0.343-66.847 29.184-67.195 65.951 0 0.21-0.005 0.415-0.005 0.625 0 0 0 268.14 0 302.382 65.695 0 85.32-5.012 96.44 18.043l95.196 187.899 110.126-384.507c3.958-13.757 36.147-55.137 61.594-3.732l105.769 264.428 100.173-200.34c8.090-16.701 42.532-46.372 62.218 4.357l49.777 149.325c0 0 40.294-38.574 52.265-38.574h66.575v-300.513c-0.005-32.922-23.183-65.341-65.956-65.341z" />
<glyph unicode="&#xe93f;" glyph-name="sys_status" d="M513.551-15.852c-16.010 0-28.989 12.979-28.989 28.989v869.724c0 16.010 12.979 28.989 28.989 28.989s28.989-12.979 28.989-28.989v-869.719c0.005-16.015-12.974-28.995-28.989-28.995zM706.632 128.522c-16.010 0.317-28.728 13.553-28.411 29.558 0 0.005 0 0.010 0 0.010v579.814c0 16.010 12.979 28.989 28.989 28.989s28.989-12.979 28.989-28.989v-579.814c-1.224-15.324-14.203-27.028-29.568-26.67v-2.898zM320.476 128.522c-16.010 0-28.989 12.979-28.989 28.989v580.393c0 16.010 12.979 28.989 28.989 28.989s28.989-12.979 28.989-28.989v-579.814c-1.213-15.099-13.844-26.721-28.989-26.67v-2.898zM900.291 272.896c-16.010 0-28.989 12.979-28.989 28.989v289.91c0 16.010 12.979 28.989 28.989 28.989s28.989-12.979 28.989-28.989v-289.905c-0.625-15.555-13.42-27.843-28.989-27.832v-1.162zM127.396 274.058c-16.010 0-28.989 12.979-28.989 28.989v289.905c0 16.010 12.979 28.989 28.989 28.989s28.989-12.979 28.989-28.989v-289.905c0-16.010-12.979-28.989-28.989-28.989z" />
<glyph unicode="&#xe940;" glyph-name="top" d="M901.453 237.722v642.514c0 20.173 15.852 36.531 35.405 36.531s35.405-16.353 35.405-36.531v-642.514c0-20.173-15.852-36.531-35.405-36.531s-35.405 16.353-35.405 36.531zM618.214 164.659v715.576c0 20.173 15.852 36.531 35.405 36.531s35.405-16.353 35.405-36.531v-715.576c0-20.173-15.852-36.531-35.405-36.531s-35.405 16.353-35.405 36.531zM334.976 237.722v642.514c0 20.173 15.852 36.531 35.405 36.531s35.405-16.353 35.405-36.531v-642.514c0-20.173-15.852-36.531-35.405-36.531s-35.405 16.353-35.405 36.531zM51.738 18.534v861.696c0 20.173 15.852 36.531 35.405 36.531s35.405-16.353 35.405-36.531v-861.696c0-20.173-15.852-36.531-35.405-36.531s-35.405 16.358-35.405 36.531z" />
<glyph unicode="&#xe941;" glyph-name="touch" d="M201.467 614.625v86.118c-37.965 83.164 20.721 207.206 134.922 207.857 134.477 0 157.901-129.362 147.231-183.383 18.586-0.727 31.524-2.785 46.029-11.51 4.731 16.963 5.908 28.631 5.908 47.119-0.005 110.003-89.175 199.173-199.173 199.173s-199.168-89.17-199.168-199.168c0-57.871 24.837-109.819 64.251-146.207v0zM805.161 278.036c0-155.689-0.742-281.897-250.445-281.897-105.779 0-169.288 23.588-217.395 71.347l-259.338 257.649c-45.911 45.911 21.499 123.996 73.011 72.484l140.426-139.597v491.546c0 73.021 89.692 74.798 89.692 0 0 0 0-274.217 0-317.773 0-34.693 51.625-34.028 51.625 0 0 45.778 0 133.258 0 133.258 0 66.801 89.692 65.464 89.692 0 0 0 0-159.452 0-174.259 0-32.374 51.625-34.376 51.625 0 0 13.645 0 123.008 0 123.008 0 72.704 90.342 66.033 90.342 0 0 0 0-121.59 0-153.759 0-30.966 50.98-32.297 50.98 0 0 30.838 0 106.609 0 106.609 0 69.171 89.789 65.167 89.789 0v-188.616zM710.728 555.412c-13.158 38.38-72.387 93.783-141.962 51.256-13.158 38.374-60.472 85.878-136.023 54.41v98.739c0 133.908-192.942 133.908-192.942 0v-378.061l-59.592 59.346c-90.609 90.609-237.885-53.11-146.022-144.968l273.94-272.143c5.652-5.612 81.244-79.109 246.6-79.109 276.47 0 302.075 149.156 302.075 333.148v194.765c-0.010 53.786-58.404 127.048-146.074 82.616z" />
<glyph unicode="&#xe942;" glyph-name="update" d="M934.723 446.761c0.727-232.689-187.32-421.914-420.014-422.636-114.729-0.358-224.645 46.090-304.353 128.609v-68.157c0-20.065-16.266-36.332-36.332-36.332s-36.332 16.266-36.332 36.332v168.98c0 19.912 16.138 36.050 36.050 36.050 0 0 0 0 0 0h168.98c20.065 0 36.332-16.266 36.332-36.332s-16.266-36.332-36.332-36.332v0h-93.501c126.505-145.587 347.085-161.055 492.672-34.55 76.529 66.499 120.387 162.98 120.166 264.366 0 3.942 0 7.885 0 11.827h2.816c5.975 18.668 25.953 28.954 44.616 22.979 10.921-3.497 19.482-12.052 22.979-22.979v0c0-3.942 0-7.885 0-11.827v0h2.253zM850.227 603.914h-168.98c-20.065 0-36.332 16.266-36.332 36.332s16.266 36.332 36.332 36.332h94.065c-125.942 145.669-346.122 161.659-491.791 35.722-73.948-63.944-117.663-155.991-120.479-253.711h-3.379c-5.975-18.668-25.953-28.954-44.616-22.979-10.921 3.497-19.482 12.052-22.979 22.979h-2.253c0 0 0 4.506 0 6.758-0.154 1.874-0.154 3.758 0 5.632-0.717 4.101-0.717 8.294 0 12.39 18.14 231.982 220.902 405.34 452.884 387.2 103.229-8.069 199.869-53.873 271.478-128.66v67.036c0 20.065 16.266 36.332 36.332 36.332s36.332-16.266 36.332-36.332v-168.98c0-19.912-16.138-36.050-36.050-36.050v0h-0.563z" />
<glyph unicode="&#xe943;" glyph-name="upgrade" d="M512 912.794c-256.696 0-464.794-208.097-464.794-464.794s208.097-464.794 464.794-464.794 464.794 208.097 464.794 464.794-208.097 464.794-464.794 464.794zM515.226 43.945c-222.812-0.891-404.157 179.016-405.048 401.828 7.521 234.435 184.53 405.048 401.823 405.048s405.048-183.552 405.048-401.828c0.891-222.812-179.011-404.157-401.823-405.048zM530.673 650.132c-0.189 0.2-0.384 0.394-0.584 0.584-10.363 10.040-26.906 9.779-36.946-0.584l-157.711-157.235c-8.689-10.004-8.689-24.878 0-34.883 9.631-11.095 26.435-12.278 37.53-2.647l113.060 111.16v-304.497c0.005-14.418 11.694-26.107 26.117-26.117 14.428-0.005 26.132 11.684 26.138 26.117v304.492l113.060-111.16c0.189-0.2 0.384-0.394 0.584-0.584 10.363-10.040 26.9-9.779 36.946 0.584 0.036 0.036 0.072 0.072 0.108 0.108 10.040 10.363 9.779 26.906-0.584 36.946l-157.716 157.716zM742.538 457.917c0 0 0-0.005 0 0-0.205-0.21-0.41-0.415-0.62-0.62l0.62 0.62z" />
<glyph unicode="&#xe944;" glyph-name="upgrade2" horiz-adv-x="1027" d="M680.385-66.738h-334.032c-18.902 0-34.225 15.323-34.225 34.225v0 421.647h-277.904c-18.707 0.253-33.775 15.478-33.775 34.222 0 8.999 3.473 17.187 9.153 23.297l-0.019-0.021 479.144 503.102c6.313 6.292 15.023 10.182 24.642 10.182s18.329-3.89 24.643-10.183l-0.001 0.001 479.144-503.102c5.66-6.088 9.133-14.276 9.133-23.276 0-18.744-15.068-33.968-33.751-34.221h-277.928v-418.909c0.070-0.82 0.11-1.774 0.11-2.738 0-18.902-15.323-34.225-34.225-34.225-0.039 0-0.077 0-0.116 0h0.006zM380.578 1.711h265.583v421.647c0 18.902 15.323 34.225 34.225 34.225v0h232.043l-399.059 418.909-399.059-418.909h232.043c18.902 0 34.225-15.323 34.225-34.225v0z" />
<glyph unicode="&#xe945;" glyph-name="version" d="M819.2 960h-614.4c-113.108 0-204.8-91.692-204.8-204.8v0-614.4c0-113.108 91.692-204.8 204.8-204.8v0h614.4c113.108 0 204.8 91.692 204.8 204.8v0 614.4c0 113.108-91.692 204.8-204.8 204.8v0zM955.733 140.8c0-75.405-61.128-136.533-136.533-136.533v0h-614.4c-75.405 0-136.533 61.128-136.533 136.533v0 614.4c0 75.405 61.128 136.533 136.533 136.533v0h68.267v-450.56l136.533 132.437 136.533-132.437v450.56h273.067c75.405 0 136.533-61.128 136.533-136.533v0z" />
</font>
</defs>
</svg>
